<svg xmlns="http://www.w3.org/2000/svg" xmlns:xlink="http://www.w3.org/1999/xlink" xmlns:sketch="http://www.bohemiancoding.com/sketch/ns" width="20px" height="15px" viewBox="0 0 20 15" version="1.1"><title>mail2</title><desc>Created with Sketch.</desc><defs/><g id="Page-1" stroke="none" stroke-width="1" fill="none" fill-rule="evenodd" sketch:type="MSPage"><g id="Login---Text-entered" sketch:type="MSArtboardGroup" transform="translate(-467.000000, -248.000000)" fill="#95A7B7"><g id="Fields" sketch:type="MSLayerGroup" transform="translate(437.000000, 220.000000)"><g id="Email" sketch:type="MSShapeGroup"><g id="mail2" transform="translate(30.000000, 28.000000)"><path d="M9.55307692,8.63 C9.82,8.8375 10.18,8.8375 10.4469231,8.63 L19.8107692,1.385 C19.9423077,1.2825 20.0023077,1.10083333 19.9607692,0.930833333 C19.8307692,0.395 19.3815385,0 18.8461538,0 L1.15384615,0 C0.618461538,0 0.169230769,0.395 0.0392307692,0.930833333 C-0.00230769231,1.10083333 0.0576923077,1.2825 0.189230769,1.385 L9.55307692,8.63" id="Fill-1"/><path d="M19.3915385,3.75583333 L10.4469231,10.6783333 C10.3130769,10.7816667 10.1569231,10.8333333 10,10.8333333 C9.84307692,10.8333333 9.68692308,10.7816667 9.55307692,10.6783333 L0.608461538,3.75583333 C0.353846154,3.55916667 0,3.75666667 0,4.095 L0,13.75 C0,14.44 0.516923077,15 1.15384615,15 L18.8461538,15 C19.4830769,15 20,14.44 20,13.75 L20,4.095 C20,3.75666667 19.6461538,3.55916667 19.3915385,3.75583333" id="Fill-2"/></g></g></g></g></g></svg>