<?xml version="1.0" encoding="UTF-8" standalone="no"?><svg width="40" height="1631" viewBox="0 0 40 1631" xmlns="http://www.w3.org/2000/svg" xmlns:xlink="http://www.w3.org/1999/xlink"><svg width="27" height="25" viewBox="0 0 27 25" id="cart-button-white"><title>Cart_white</title><path d="M9.3 4.22l16.08 1.334 1.146.096-.168 1.137-1.35 9.18-.135.923H8.588l-.25-.73L3.924 2.94H.36V.78H5.362l.25.73.84 2.463 2.85.246zM8.115 6.278l15.922 1.32-1.032 7.133H10.13L7.216 6.207l.897.07zm3.81 15.402a2.317 2.317 0 1 1-4.633 0 2.317 2.317 0 0 1 4.635 0zm14.22 0a2.318 2.318 0 1 1-4.634 0 2.318 2.318 0 0 1 4.635 0z" fill="#FFF" fill-rule="evenodd"/></svg><svg width="28" height="19" viewBox="0 0 28 19" id="cash-on-delivery" y="25"><title>cash</title><path d="M26.506 15.857V1.52H2.896V0h25.117v15.857h-1.507zm-1.406 3.15H-.017V3.04H25.1v15.967zM23.593 4.562H1.39v12.816h22.203V4.562zm-11.855 6.95c-1.206-.217-1.808-.542-2.108-.65-.602-.434-.906-.98-.906-1.52 0-1.197 1.206-2.063 3.014-2.28h.1V5.866h1.206v1.196h.1c1.307.217 2.413.758 2.814 1.63l-1.206.432c-.2-.216-.805-.54-1.507-.65h-.1v2.17h.1c.805.11 1.507.326 2.008.65.2.11.4.218.5.326l.1.11c.302.324.402.757.402 1.086 0 1.196-1.206 2.063-2.913 2.28h-.1v1.195h-1.207v-1.195h-.1c-1.507-.108-2.613-.87-2.914-1.737l1.208-.325c.2.325.805.65 1.707.758h.1l-.297-2.278zm.1-3.15h-.1c-1.106.11-1.808.65-1.808.98 0 .324.702.758 1.808.978h.1V8.362zm1.407 5.213c1.006-.11 1.707-.65 1.707-.98 0-.324-.7-.758-1.707-.978h-.1v1.954h.1v.005z" fill="#9CA73B" fill-rule="evenodd"/></svg><svg width="28" height="19" viewBox="0 0 28 19" id="cash-on-delivery-gray" y="44"><title>cash grey</title><path d="M26.506 15.857V1.52H2.896V0h25.117v15.857h-1.507zm-1.406 3.15H-.017V3.04H25.1v15.967zM23.593 4.562H1.39v12.816h22.203V4.562zm-11.855 6.95c-1.206-.217-1.808-.542-2.108-.65-.602-.434-.906-.98-.906-1.52 0-1.197 1.206-2.063 3.014-2.28h.1V5.866h1.206v1.196h.1c1.307.217 2.413.758 2.814 1.63l-1.206.432c-.2-.216-.805-.54-1.507-.65h-.1v2.17h.1c.805.11 1.507.326 2.008.65.2.11.4.218.5.326l.1.11c.302.324.402.757.402 1.086 0 1.196-1.206 2.063-2.913 2.28h-.1v1.195h-1.207v-1.195h-.1c-1.507-.108-2.613-.87-2.914-1.737l1.208-.325c.2.325.805.65 1.707.758h.1l-.297-2.278zm.1-3.15h-.1c-1.106.11-1.808.65-1.808.98 0 .324.702.758 1.808.978h.1V8.362zm1.407 5.213c1.006-.11 1.707-.65 1.707-.98 0-.324-.7-.758-1.707-.978h-.1v1.954h.1v.005z" fill="#9C999D" fill-rule="evenodd"/></svg><svg width="28" height="18" viewBox="0 0 28 18" id="economy-shipping" y="63"><title>Slice 1</title><g transform="translate(0 .116)" fill="#9CA83B" fill-rule="evenodd"><path d="M15.184.408H1.054c-.448 0-.773.28-.773.665v13.144c0 .383.34.684.774.684h1.034a.452.452 0 0 0 0-.903h-.904V1.31h13.873v12.687h-4.6a.452.452 0 0 0 0 .904h4.727c.435 0 .776-.3.776-.683V1.073c0-.385-.327-.665-.776-.665"/><path d="M15.184 15.17h-4.726a.723.723 0 0 1 0-1.444h4.328V1.582H1.456v12.144h.632a.723.723 0 0 1 0 1.445H1.054c-.585 0-1.044-.418-1.044-.953V1.073C.01.54.46.137 1.054.137h14.13c.596 0 1.047.402 1.047.936v13.144c0 .535-.46.954-1.046.954zm-4.726-.902a.18.18 0 0 0 0 .362h4.726c.283 0 .505-.182.505-.413V1.073c0-.232-.21-.394-.506-.394H1.054c-.296 0-.502.16-.502.393v13.144c0 .23.22.413.502.413h1.034a.18.18 0 0 0 0-.362H.913V1.04h14.415v13.228h-4.87zM27.39 8.684c-.124-.22-.245-.44-.366-.66a66.32 66.32 0 0 0-.246-.447c-.27-.483-.536-.968-.802-1.452l-.57-1.04-.316-.57c-.397-.72-1.354-1.286-2.178-1.286h-5.427a.452.452 0 0 0-.452.45v10.77c0 .248.202.45.452.45h.92a.452.452 0 0 0 0-.903h-.47V4.132h4.977c.498 0 1.146.382 1.387.82l.315.572.57 1.035c.266.486.533.973.805 1.457l.242.44c.124.226.247.45.375.675.22.387.22.88.218 1.4v2.725c0 .17-.294.605-.557.878a.452.452 0 0 0 .65.628c.136-.14.81-.872.81-1.506v-2.724c.002-.587.004-1.252-.337-1.85"/><path d="M26.593 15.17a.724.724 0 0 1-.52-1.224c.25-.26.465-.605.48-.7V10.53c.002-.483.004-.94-.182-1.264-.124-.22-.246-.442-.368-.665l-.06-.108a187.918 187.918 0 0 1-.995-1.802l-.047-.087-.522-.95-.317-.572c-.19-.35-.75-.68-1.148-.68h-4.705v9.324h.2a.723.723 0 0 1 0 1.445h-.922a.723.723 0 0 1-.723-.72V3.68c0-.398.324-.722.723-.722h5.427c.93 0 1.968.613 2.415 1.426l.315.57c.192.347.382.694.572 1.04.265.484.53.968.8 1.45.084.15.166.3.248.45.12.22.24.438.365.656.376.66.374 1.363.372 1.984v2.723c0 .72-.68 1.48-.886 1.694a.717.717 0 0 1-.52.22zM17.665 3.86h5.247c.594 0 1.338.44 1.624.96l.316.573c.175.316.35.633.523.95l.047.086a181.146 181.146 0 0 0 .995 1.8l.052.096c.128.235.248.454.372.672.257.45.255 1 .254 1.534v2.725c0 .335-.456.883-.632 1.066a.18.18 0 0 0 .004.256c.07.066.19.064.256-.006.272-.282.733-.877.733-1.317v-2.724c.002-.58.004-1.18-.3-1.715-.127-.22-.25-.442-.37-.665l-.246-.445c-.27-.483-.535-.968-.8-1.453-.19-.346-.38-.692-.573-1.038l-.315-.57c-.347-.633-1.218-1.147-1.94-1.147h-5.427c-.1 0-.18.08-.18.18v10.77c0 .1.08.18.18.18h.92a.18.18 0 0 0 0-.362h-.74V3.86zM6.295 16.545A2.098 2.098 0 0 1 4.2 14.45c0-1.157.94-2.097 2.095-2.097 1.156 0 2.096.94 2.096 2.096 0 1.155-.94 2.095-2.095 2.095m0-5.095c-1.653 0-3 1.345-3 3 0 1.653 1.347 2.998 3 2.998 1.654 0 3-1.345 3-3 0-1.653-1.346-2.998-3-2.998"/><path d="M6.295 17.72a3.274 3.274 0 0 1-3.27-3.27 3.274 3.274 0 0 1 3.27-3.27 3.274 3.274 0 0 1 3.27 3.27 3.274 3.274 0 0 1-3.27 3.27zm0-6a2.73 2.73 0 0 0-2.728 2.73 2.73 2.73 0 0 0 2.728 2.727 2.73 2.73 0 0 0 2.73-2.728 2.73 2.73 0 0 0-2.73-2.73zm0 5.096a2.37 2.37 0 0 1-2.367-2.367 2.37 2.37 0 0 1 2.367-2.368 2.37 2.37 0 0 1 2.367 2.367 2.37 2.37 0 0 1-2.367 2.366zm0-4.192c-1.006 0-1.825.82-1.825 1.825s.82 1.824 1.825 1.824c1.007 0 1.825-.82 1.825-1.825 0-1.007-.818-1.826-1.825-1.826zM22.55 16.545a2.098 2.098 0 0 1-2.097-2.096c0-1.157.94-2.097 2.096-2.097 1.155 0 2.095.94 2.095 2.096 0 1.155-.94 2.095-2.096 2.095m0-5.095c-1.655 0-3 1.345-3 3 0 1.653 1.345 2.998 3 2.998 1.653 0 2.998-1.345 2.998-3 0-1.653-1.345-2.998-3-2.998"/><path d="M22.55 17.72a3.274 3.274 0 0 1-3.27-3.27 3.274 3.274 0 0 1 3.27-3.27 3.274 3.274 0 0 1 3.27 3.27 3.274 3.274 0 0 1-3.27 3.27zm0-6a2.73 2.73 0 0 0-2.73 2.73 2.73 2.73 0 0 0 2.73 2.727 2.732 2.732 0 0 0 2.727-2.728 2.73 2.73 0 0 0-2.728-2.73zm0 5.096a2.37 2.37 0 0 1-2.368-2.367 2.37 2.37 0 0 1 2.367-2.368 2.37 2.37 0 0 1 2.366 2.367 2.37 2.37 0 0 1-2.367 2.366zm0-4.192c-1.007 0-1.826.82-1.826 1.825s.82 1.824 1.825 1.824 1.824-.82 1.824-1.825c0-1.007-.82-1.826-1.825-1.826zM19.596 7.836V5.74h2.796c.242 0 .567.192.684.404l.174.316c.106.19.21.38.314.57.148.268.295.538.446.806h-4.414zm5.29.516a.343.343 0 0 0 .004-.34l-.15-.27-.132-.24c-.15-.267-.297-.535-.443-.802l-.315-.572-.174-.315c-.238-.432-.79-.76-1.284-.76h-3.138a.343.343 0 0 0-.343.344V8.18c0 .188.155.342.344.342h5.337a.343.343 0 0 0 .296-.17z"/><path d="M24.59 8.793h-5.336a.614.614 0 0 1-.614-.614V5.396c0-.338.276-.614.614-.614h3.138c.595 0 1.235.378 1.52.9l.175.314c.106.19.21.38.315.572l.028.05c.137.25.274.5.414.75l.133.24.15.27a.617.617 0 0 1-.007.61.617.617 0 0 1-.53.303zm-5.336-3.468a.072.072 0 0 0-.072.072V8.18c0 .038.032.07.072.07h5.337c.026 0 .05-.013.063-.035a.074.074 0 0 0 0-.07l-.15-.273-.133-.24c-.14-.248-.277-.5-.415-.75l-.028-.052-.314-.57-.174-.316c-.192-.347-.652-.62-1.048-.62h-3.138zm4.756 2.782h-4.684V5.47h3.066c.343 0 .756.243.922.543l.174.316.26.47.075.138c.14.255.28.51.423.766l.226.403h-.462zm-4.142-.542h3.68l-.2-.367-.077-.14a78.6 78.6 0 0 0-.257-.467l-.174-.316c-.07-.125-.304-.263-.448-.263h-2.524v1.555zM8.4 9.155c-.462 0-.828-.13-1.085-.386a1.322 1.322 0 0 1-.39-.976v-.326c0-.387.13-.714.387-.97.257-.26.62-.39 1.08-.39.467 0 .83.13 1.083.387.252.256.38.584.38.973v.326c0 .393-.128.72-.38.976s-.613.385-1.074.385zM8.393 7.06c-.12 0-.207.036-.268.112a.45.45 0 0 0-.098.296v.326c0 .114.036.21.11.29.075.08.16.12.265.12.144 0 .24-.032.283-.094a.546.546 0 0 0 .076-.316v-.326a.445.445 0 0 0-.1-.295c-.063-.077-.15-.114-.268-.114zM4.326 8.22l3.106-4.972.827.416-3.107 4.972-.827-.416zm-.124-2.537c-.463 0-.827-.13-1.082-.386a1.325 1.325 0 0 1-.384-.97V4c0-.39.128-.717.382-.975.253-.258.615-.39 1.076-.39.466 0 .83.132 1.085.39.252.258.38.586.38.976v.327c0 .39-.128.717-.382.972-.253.254-.615.383-1.076.383zm-.008-2.096c-.116 0-.203.037-.264.113a.46.46 0 0 0-.1.3v.327c0 .12.033.217.1.296.06.073.15.11.272.11.117 0 .203-.037.263-.11a.447.447 0 0 0 .096-.296V4c0-.12-.03-.218-.098-.3-.06-.076-.15-.113-.268-.113z"/><path d="M4.194 2.726c.443 0 .783.12 1.02.362s.356.546.356.913v.327c0 .367-.12.67-.356.908-.237.24-.574.358-1.012.358-.44 0-.78-.12-1.018-.36a1.232 1.232 0 0 1-.358-.906V4c0-.366.12-.67.356-.912.237-.24.574-.362 1.012-.362zm.008 2.096a.406.406 0 0 0 .333-.14.54.54 0 0 0 .116-.355V4a.55.55 0 0 0-.117-.357.41.41 0 0 0-.34-.146.406.406 0 0 0-.334.146.55.55 0 0 0-.12.358v.327c0 .14.04.26.12.354.078.095.193.142.342.142zm3.263-1.456l.665.334-3.01 4.82-.665-.336 3.01-4.818zm.928 2.832c.443 0 .782.12 1.018.36s.354.544.354.91v.326c0 .37-.118.674-.353.913-.235.238-.572.358-1.01.358-.44 0-.78-.12-1.022-.36a1.23 1.23 0 0 1-.362-.91v-.327c0-.364.12-.666.36-.908.24-.24.58-.362 1.017-.362zM8.4 8.294c.176 0 .294-.044.357-.13a.628.628 0 0 0 .093-.37v-.326a.537.537 0 0 0-.12-.353.413.413 0 0 0-.337-.146.41.41 0 0 0-.34.145.543.543 0 0 0-.118.353v.326c0 .136.045.253.136.352.09.1.2.148.33.148zM4.195 2.546c-.486 0-.87.14-1.14.416a1.43 1.43 0 0 0-.408 1.04v.325c0 .412.138.76.41 1.033.273.275.658.413 1.146.413.486 0 .87-.138 1.14-.41.27-.273.41-.62.41-1.036V4a1.43 1.43 0 0 0-.41-1.038c-.27-.276-.657-.416-1.148-.416zm.008 2.096c-.125 0-.176-.044-.204-.077a.355.355 0 0 1-.076-.238V4c0-.098.025-.178.078-.243.03-.037.08-.08.194-.08.12 0 .17.046.198.08a.37.37 0 0 1 .08.244v.327a.36.36 0 0 1-.077.24c-.027.03-.076.075-.193.075zM7.4 3.13L4.196 8.256l.99.498 3.2-5.126-.176-.09-.81-.408zm.993 2.888c-.486 0-.87.14-1.145.415a1.415 1.415 0 0 0-.412 1.035v.326c0 .416.14.765.415 1.04.276.273.663.41 1.15.41.486 0 .87-.137 1.14-.41.268-.273.405-.622.405-1.04v-.326c0-.414-.137-.763-.405-1.036-.27-.275-.656-.414-1.147-.414zM8.4 8.113c-.078 0-.14-.028-.196-.09a.32.32 0 0 1-.088-.23V7.47c0-.096.025-.174.078-.24.028-.033.078-.078.2-.078.116 0 .167.045.196.08a.36.36 0 0 1 .08.238v.326a.47.47 0 0 1-.06.264c-.026.035-.1.055-.21.055z"/></g></svg><svg width="35" height="18" viewBox="0 0 35 18" id="express" y="81"><title>express</title><path d="M32.793 15.57h-.898c-.3 1.407-1.5 2.41-3 2.41a3.024 3.024 0 0 1-3.002-2.41h-8.198c-.3 1.407-1.5 2.41-3 2.41a3.024 3.024 0 0 1-3.002-2.41H10.59c-1.3 0-2.297-1.007-2.297-2.31v-1.207H5.595c-.4 0-.698-.3-.698-.702 0-.4.3-.7.698-.7h5.3c.4 0 .698.3.698.7 0 .402-.3.703-.698.703h-1.2v1.207c0 .5.398.902.896.902h1.103c.3-1.407 1.5-2.41 3-2.41 1.402 0 2.7 1.007 3.002 2.41h8.198c.3-1.407 1.5-2.41 3-2.41s2.698 1.007 3.002 2.41h.898c.5 0 .898-.4.898-.902v-3.216c-.2-.5-.498-.902-.698-1.307h-6.098c-1.9 0-2.598-1.608-2.598-2.71v-2.51c0-.4.3-.702.7-.702.398 0 .697.3.697.7v2.51c0 .302.1 1.31 1.2 1.31h5.3c-4.002-6.128-7.298-5.928-7.398-5.928h-16c-.398 0-.698-.3-.698-.7 0-.406.3-.707.7-.707H24.79c1.202 0 5.6.6 10.098 9.443.1.1.1.3.1.4v3.317c.103 1.307-.894 2.41-2.195 2.41zm-16.498-1.504c-.3-.6-.8-1.007-1.5-1.007s-1.302.4-1.502 1.006c-.1.2-.2.5-.2.702 0 .2.1.5.1.7.3.603.898 1.008 1.5 1.008.7 0 1.302-.4 1.502-1.007.1-.2.1-.402.1-.702.1-.2.1-.4 0-.702zm14.1 0c-.3-.6-.8-1.007-1.5-1.007-.704 0-1.302.4-1.502 1.006-.1.2-.2.5-.2.702 0 .2.1.5.1.7.3.603.898 1.008 1.5 1.008.6 0 1.302-.4 1.502-1.007.1-.2.1-.402.1-.702.2-.2.1-.4 0-.702zm-16.2-10.65c0 .4-.3.702-.698.702h-10.4c-.4 0-.7-.3-.7-.702 0-.4.3-.7.7-.7h10.4c.4-.106.698.3.698.7zm-8.7 2.61c0-.4.3-.7.7-.7h9.996c.4 0 .7.3.7.7 0 .4-.3.702-.7.702H6.2a.682.682 0 0 1-.703-.702zm8.7 2.615c0 .402-.3.702-.698.702H.697c-.398 0-.697-.3-.697-.7 0-.402.3-.703.698-.703h12.8a.68.68 0 0 1 .697.7z" fill="#9CA73B" fill-rule="evenodd"/></svg><svg width="35" height="18" viewBox="0 0 35 18" id="express-grey" y="99"><title>express grey</title><path d="M32.793 15.57h-.898c-.3 1.407-1.5 2.41-3 2.41a3.024 3.024 0 0 1-3.002-2.41h-8.198c-.3 1.407-1.5 2.41-3 2.41a3.024 3.024 0 0 1-3.002-2.41H10.59c-1.3 0-2.297-1.007-2.297-2.31v-1.207H5.595c-.4 0-.698-.3-.698-.702 0-.4.3-.7.698-.7h5.3c.4 0 .698.3.698.7 0 .402-.3.703-.698.703h-1.2v1.207c0 .5.398.902.896.902h1.103c.3-1.407 1.5-2.41 3-2.41 1.402 0 2.7 1.007 3.002 2.41h8.198c.3-1.407 1.5-2.41 3-2.41s2.698 1.007 3.002 2.41h.898c.5 0 .898-.4.898-.902v-3.216c-.2-.5-.498-.902-.698-1.307h-6.098c-1.9 0-2.598-1.608-2.598-2.71v-2.51c0-.4.3-.702.7-.702.398 0 .697.3.697.7v2.51c0 .302.1 1.31 1.2 1.31h5.3c-4.002-6.128-7.298-5.928-7.398-5.928h-16c-.398 0-.698-.3-.698-.7 0-.406.3-.707.7-.707H24.79c1.202 0 5.6.6 10.098 9.443.1.1.1.3.1.4v3.317c.103 1.307-.894 2.41-2.195 2.41zm-16.498-1.504c-.3-.6-.8-1.007-1.5-1.007s-1.302.4-1.502 1.006c-.1.2-.2.5-.2.702 0 .2.1.5.1.7.3.603.898 1.008 1.5 1.008.7 0 1.302-.4 1.502-1.007.1-.2.1-.402.1-.702.1-.2.1-.4 0-.702zm14.1 0c-.3-.6-.8-1.007-1.5-1.007-.704 0-1.302.4-1.502 1.006-.1.2-.2.5-.2.702 0 .2.1.5.1.7.3.603.898 1.008 1.5 1.008.6 0 1.302-.4 1.502-1.007.1-.2.1-.402.1-.702.2-.2.1-.4 0-.702zm-16.2-10.65c0 .4-.3.702-.698.702h-10.4c-.4 0-.7-.3-.7-.702 0-.4.3-.7.7-.7h10.4c.4-.106.698.3.698.7zm-8.7 2.61c0-.4.3-.7.7-.7h9.996c.4 0 .7.3.7.7 0 .4-.3.702-.7.702H6.2a.682.682 0 0 1-.703-.702zm8.7 2.615c0 .402-.3.702-.698.702H.697c-.398 0-.697-.3-.697-.7 0-.402.3-.703.698-.703h12.8a.68.68 0 0 1 .697.7z" fill="#9C999D" fill-rule="evenodd"/></svg><svg width="12" height="12" viewBox="0 0 12 12" id="filter-checkbox-off" y="117"><title>checkbox-off</title><path d="M0 0h12v12H0z" stroke="#646464" fill="none" fill-rule="evenodd"/></svg><svg width="12" height="12" viewBox="0 0 12 12" id="filter-checkbox-on" y="129"><title>checkbox-on</title><g fill="none" fill-rule="evenodd"><path stroke="#646464" d="M0 0h12v12H0z"/><path d="M1.96 6.075l2.605 2.823 6-6.5" stroke="#666" stroke-width="2"/></g></svg><svg id="flag-circle-en" data-name="Layer 1" viewBox="0 0 40 40" width="40" height="40" y="141"><defs><style>.aicls-1{fill:#d0011b}.aicls-2{fill:#111;fill-opacity:0;opacity:.6;isolation:isolate}.aicls-3{fill:none;stroke:gray}.aicls-4{clip-path:url(#aiclip-path)}.aicls-5{fill:#01247d}.aicls-6{fill:#fff}.aicls-7{fill:#cf142b}</style><clipPath id="aiclip-path" transform="translate(4 4)"><circle id="ai_Ellipse_" data-name="&lt;Ellipse>" class="aicls-1" cx="16.01" cy="16" r="13"/></clipPath></defs><title>flag_EN</title><g id="aiSettings"><g id="aiFlags-icons"><g id="aiflag_EN" data-name="flag EN"><path id="aiboundingbox" class="aicls-2" d="M0 0h40v40H0z"/><path id="aiShape" class="aicls-3" d="M20 5a15 15 0 1 0 15 15A15 15 0 0 0 20 5z"/></g></g></g><circle id="ai_Ellipse_2" data-name="&lt;Ellipse>" class="aicls-1" cx="20.01" cy="20" r="13"/><g class="aicls-4"><path id="aiRectangle-path" class="aicls-5" d="M.63 7h38v26h-38z"/><path id="aiShape-2" data-name="Shape" class="aicls-6" d="M38.63 16.1H23.42V7h-7.6v9.1H.63v7.8h15.2V33h7.6v-9.1h15.2v-7.8z"/><path id="aiShape-3" data-name="Shape" class="aicls-6" d="M38.63 30L5 7H.63v3l33.5 23h4.5v-3z"/><path id="aiShape-4" data-name="Shape" class="aicls-6" d="M.63 30L34.26 7h4.36v3L5 33H.63v-3z"/><path id="aiShape-5" data-name="Shape" class="aicls-7" d="M38.63 17.69H21.88V7h-4.5v10.69H.63v4.62h16.74V33h4.5V22.31h16.76v-4.62z"/><path id="aiShape-6" data-name="Shape" class="aicls-7" d="M38.63 33v-2.14L28.53 24h-2.9z"/><path id="aiShape-7" data-name="Shape" class="aicls-7" d="M38.63 7h-3.06l-11.94 8.29V16h1.81l13.19-9z"/><path id="aiShape-8" data-name="Shape" class="aicls-7" d="M13.68 24L.63 33H3.4l12.22-8.29V24h-1.94z"/><path id="aiShape-9" data-name="Shape" class="aicls-7" d="M.63 7v2l10.1 7h2.9z"/><path id="aiRectangle-path-2" data-name="Rectangle-path" class="aicls-5" d="M1 7h38v26H1z"/><path id="aiShape-10" data-name="Shape" class="aicls-6" d="M39 16.1H23.8V7h-7.6v9.1H1v7.8h15.2V33h7.6v-9.1H39v-7.8z"/><path id="aiShape-11" data-name="Shape" class="aicls-6" d="M39 30L5.36 7H1v3l33.5 23H39v-3z"/><path id="aiShape-12" data-name="Shape" class="aicls-6" d="M1 30L34.64 7H39v3L5.36 33H1v-3z"/><path id="aiShape-13" data-name="Shape" class="aicls-7" d="M39 17.69H22.25V7h-4.5v10.69H1v4.62h16.75V33h4.5V22.31H39v-4.62z"/><path id="aiShape-14" data-name="Shape" class="aicls-7" d="M39 33v-2.14L28.9 24H26z"/><path id="aiShape-15" data-name="Shape" class="aicls-7" d="M39 7h-3.06L24 15.29V16h1.81L39 7z"/><path id="aiShape-16" data-name="Shape" class="aicls-7" d="M14.06 24L1 33h2.78L16 24.71V24h-1.94z"/><path id="aiShape-17" data-name="Shape" class="aicls-7" d="M1 7v2l10.1 7H14z"/></g></svg><svg id="flag-circle-en-inactive" data-name="Layer 1" viewBox="0 0 40 40" width="40" height="40" y="181"><defs><style>.ajcls-1{fill:#fff}.ajcls-2{fill:#111;fill-opacity:0;opacity:.6;isolation:isolate}.ajcls-3{fill:none;stroke:gray}.ajcls-4{clip-path:url(#ajclip-path)}.ajcls-5{fill:#232323}.ajcls-6{fill:#4f4f4f}</style><clipPath id="ajclip-path" transform="translate(4 4)"><circle id="aj_Ellipse_" data-name="&lt;Ellipse>" class="ajcls-1" cx="16" cy="16" r="13"/></clipPath></defs><title>flag_EN_G</title><g id="ajSettings"><g id="ajFlags-icons"><g id="ajflag_EN_G" data-name="flag EN G"><path id="ajboundingbox" class="ajcls-2" d="M0 0h40v40H0z"/><path id="ajShape" class="ajcls-3" d="M20 5a15 15 0 1 0 15 15A15 15 0 0 0 20 5z"/></g></g></g><circle id="aj_Ellipse_2" data-name="&lt;Ellipse>" class="ajcls-1" cx="20" cy="20" r="13"/><g class="ajcls-4"><path class="ajcls-5" d="M3.92 7H36v26H3.92z"/><path class="ajcls-1" d="M36 16.1H23.8V7h-7.6v9.1H3.92v7.8H16.2V33h7.6v-9.1H36v-7.8z"/><path class="ajcls-1" d="M36 27.92L5.36 7H3.92v5.03L34.5 33H36v-5.08z"/><path class="ajcls-1" d="M36 7h-1.36L3.92 27.98V33h1.44L36 12.08V7z"/><path class="ajcls-6" d="M36 17.69H22.25V7h-4.5v10.69H3.92v4.62h13.83V33h4.5V22.31H36v-4.62z"/><path class="ajcls-6" d="M36 28.82L28.9 24H26l10 6.92v-2.1zM36 7h-.06L24 15.29V16h1.81L36 9.05V7zM14.06 24L3.92 30.99v1.92L16 24.71V24h-1.94zM3.92 9.02v2L11.1 16H14L3.92 9.02z"/></g></svg><svg id="flag-circle-en-small" viewBox="0 0 22 22" width="22" height="22" y="221"><style>.akst0{opacity:.6;fill:#111;fill-opacity:0;enable-background:new}.akst1{fill:none;stroke:gray;stroke-width:.5538}.akst2{fill:#d0011b}.akst3{clip-path:url(#akSVGID_2_)}.akst4{fill:#01247d}.akst5{fill:#FFF}.akst6{fill:#cf142b}</style><title>flag_EN_S</title><g id="akSettings"><g id="akFlags-icons"><g id="akflag_EN"><path id="akboundingbox" class="akst0" d="M0 0h22v22H0z"/><path id="akShape" class="akst1" d="M11 2.8c-4.6 0-8.3 3.7-8.3 8.2 0 4.6 3.7 8.3 8.2 8.3 4.6 0 8.3-3.7 8.3-8.2 0-4.7-3.6-8.3-8.2-8.3z"/></g></g></g><circle id="ak_Ellipse_2" class="akst2" cx="11" cy="11" r="7.2"/><defs><circle id="akSVGID_1_" cx="11" cy="11" r="7.2"/></defs><clipPath id="akSVGID_2_"><use xlink:href="#akSVGID_1_" overflow="visible"/></clipPath><g class="akst3"><path id="akRectangle-path" class="akst4" d="M.3 3.9h20.9v14.3H.3z"/><path id="akShape-2" class="akst5" d="M21.2 8.9h-8.3v-5H8.7v5H.4v4.3h8.3v5h4.2v-5h8.3V8.9z"/><path id="akShape-3" class="akst5" d="M21.2 16.5L2.7 3.9H.3v1.6l18.4 12.7h2.4v-1.7z"/><path id="akShape-4" class="akst5" d="M.3 16.5L18.8 3.9h2.4v1.6L2.7 18.2H.3v-1.7z"/><path id="akShape-5" class="akst6" d="M21.2 9.7H12V3.9H9.6v5.9H.3v2.5h9.2v5.9H12v-5.9h9.2V9.7z"/><path id="akShape-6" class="akst6" d="M21.2 18.2V17l-5.6-3.8H14l7.2 5z"/><path id="akShape-7" class="akst6" d="M21.2 3.9h-1.6L13 8.4v.4h1l7.2-4.9z"/><path id="akShape-8" class="akst6" d="M7.6 13.2l-7.2 5h1.5l6.7-4.6v-.4h-1z"/><path id="akShape-9" class="akst6" d="M.3 3.9V5l5.6 3.8h1.6L.3 3.9z"/><path id="akRectangle-path-2" class="akst4" d="M.5 3.9h20.9v14.3H.5z"/><path id="akShape-10" class="akst5" d="M21.4 8.9h-8.3v-5H8.9v5H.6v4.3h8.3v5h4.2v-5h8.3V8.9z"/><path id="akShape-11" class="akst5" d="M21.4 16.5L2.9 3.9H.5v1.6L19 18.2h2.5v-1.7z"/><path id="akShape-12" class="akst5" d="M.5 16.5L19 3.9h2.4v1.6L2.9 18.2H.5v-1.7z"/><path id="akShape-13" class="akst6" d="M21.4 9.7h-9.2V3.9H9.8v5.9H.5v2.5h9.2v5.9h2.5v-5.9h9.2V9.7z"/><path id="akShape-14" class="akst6" d="M21.4 18.2V17l-5.5-3.8h-1.6l7.1 5z"/><path id="akShape-15" class="akst6" d="M21.4 3.9h-1.7l-6.6 4.6v.4h1l7.3-5z"/><path id="akShape-16" class="akst6" d="M7.7 13.2l-7.2 5H2l6.7-4.6v-.4h-1z"/><path id="akShape-17" class="akst6" d="M.5 3.9V5l5.6 3.8h1.6L.5 3.9z"/></g></svg><svg id="flag-circle-id" data-name="Layer 1" viewBox="0 0 40 40" width="40" height="40" y="243"><defs><style>.alcls-1{fill:#fff}.alcls-2{fill:#111;fill-opacity:0;opacity:.6;isolation:isolate}.alcls-3{fill:none;stroke:gray}.cls-4{mask:url(#almask)}.alcls-5{clip-path:url(#alclip-path)}.alcls-6{fill:#ce1126}</style><mask id="almask" x="7" y="7" width="26" height="26" maskUnits="userSpaceOnUse"><g transform="translate(4 4)"><g id="almask-2"><circle id="alpath-1" class="alcls-1" cx="16" cy="16" r="13"/></g></g></mask><clipPath id="alclip-path" transform="translate(4 4)"><circle id="al_Ellipse_" data-name="&lt;Ellipse>" class="alcls-1" cx="16" cy="16" r="13"/></clipPath></defs><title>flag_IN</title><g id="alSettings"><g id="alFlags-icons"><g id="alflag_IN" data-name="flag IN"><path id="alboundingbox" class="alcls-2" d="M0 0h40v40H0z"/><path id="alShape" class="alcls-3" d="M20 5a15 15 0 1 0 15 15A15 15 0 0 0 20 5z"/></g></g></g><circle id="al_Ellipse_2" data-name="&lt;Ellipse>" class="alcls-1" cx="20" cy="20" r="13"/><g class="alcls-5"><g id="alLayer_1-2" data-name="Layer 1"><g id="alGroup"><path class="alcls-6" d="M36 5.31H4.09Q4.06 7.17 4 9v11h32V5.31z"/><path class="alcls-1" d="M4 19.99h32v14.68H4z"/></g></g></g></svg><svg id="flag-circle-id-inactive" data-name="Layer 1" viewBox="0 0 40 40" width="40" height="40" y="283"><defs><style>.cls-1,.cls-4{fill:none}.amcls-2{fill:#fff}.amcls-3{fill:#111;fill-opacity:0;opacity:.6;isolation:isolate}.amcls-4{stroke:gray}.amcls-5{clip-path:url(#amclip-path)}.amcls-6{fill:#4c4c4c}</style><clipPath id="amclip-path"><circle class="amcls-1" cx="20" cy="20" r="13"/></clipPath></defs><title>flag_IN_G</title><g id="ammask"><g id="ammask-2"><circle id="ampath-1" class="amcls-2" cx="20" cy="20" r="13"/></g></g><g id="amSettings"><g id="amFlags-icons"><g id="amflag_IN" data-name="flag IN"><path id="amboundingbox" class="amcls-3" d="M0 0h40v40H0z"/><path id="amShape" class="amcls-4" d="M20 5a15 15 0 1 0 15 15A15 15 0 0 0 20 5z"/></g></g></g><circle id="am_Ellipse_2" data-name="Ellipse 2" class="amcls-2" cx="20" cy="20" r="13"/><g class="amcls-5"><g id="amLayer_1-2" data-name="Layer 1-2"><g id="amGroup"><path class="amcls-6" d="M36 5.31H4.09Q4.06 7.17 4 9v11h32V5.31z"/><path class="amcls-2" d="M4 19.99h32v14.68H4z"/></g></g></g></svg><svg id="flag-circle-id-small" viewBox="0 0 22 22" width="22" height="22" y="323"><style>.anst0{fill:#FFF}.anst1{opacity:.6;fill:#111;fill-opacity:0;enable-background:new}.anst2{fill:none;stroke:gray;stroke-width:.5534}.anst3{clip-path:url(#anSVGID_2_)}.anst4{fill:#ce1126}</style><title>flag_IN_S</title><g id="anmask"><g id="anmask-2"><circle id="anpath-1" class="anst0" cx="11" cy="11" r="7.1"/></g></g><g id="anSettings"><g id="anFlags-icons"><g id="anflag_IN"><path id="anboundingbox" class="anst1" d="M0 0h22v22H0z"/><path id="anShape" class="anst2" d="M11 2.8c-4.6 0-8.2 3.7-8.2 8.2s3.7 8.2 8.2 8.2 8.2-3.7 8.2-8.2c0-4.6-3.6-8.2-8.2-8.2z"/></g></g></g><circle id="an_Ellipse_2" class="anst0" cx="11" cy="11" r="7.1"/><defs><circle id="anSVGID_1_" cx="11" cy="11" r="7.1"/></defs><clipPath id="anSVGID_2_"><use xlink:href="#anSVGID_1_" overflow="visible"/></clipPath><g class="anst3"><g id="anLayer_1-2"><g id="anGroup"><path class="anst4" d="M19.8 2.9H2.3c0 .7 0 1.4-.1 2V11h17.6V2.9z"/><path class="anst0" d="M2.2 11h17.6v8.1H2.2z"/></g></g></g></svg><svg id="flag-circle-ms" data-name="Layer 1" viewBox="0 0 40 40" width="40" height="40" y="345"><defs><style>.aocls-1{fill:#fff}.aocls-2{fill:#111;fill-opacity:0;opacity:.6;isolation:isolate}.aocls-3{fill:none;stroke:gray}.aocls-4{clip-path:url(#aoclip-path)}.aocls-5{fill:#dc241f}.aocls-6{fill:#010e66}.aocls-7{fill:#ffd100}</style><clipPath id="aoclip-path" transform="translate(4 4)"><circle id="ao_Ellipse_" data-name="&lt;Ellipse>" class="aocls-1" cx="16" cy="16.01" r="13"/></clipPath></defs><title>flag_MY</title><g id="aoSettings"><g id="aoFlags-icons"><g id="aoflag_MY" data-name="flag MY"><path id="aoboundingbox" class="aocls-2" d="M0 0h40v40H0z"/><path id="aoShape" class="aocls-3" d="M20 5a15 15 0 1 0 15 15A15 15 0 0 0 20 5z"/></g></g></g><circle id="ao_Ellipse_2" data-name="&lt;Ellipse>" class="aocls-1" cx="20" cy="20.01" r="13"/><g class="aocls-4"><g id="aoLayer_1-2" data-name="Layer 1"><g id="aoGroup"><path class="aocls-1" d="M36.11 25.45H6.9v2.06h29.19v-.78c.02-.43.02-.85.02-1.28z"/><path class="aocls-5" d="M36.1 23.39H6.9v2.06h29.21q0-1.03-.01-2.06zM36 31.49H6.9v2.06h29q.1-1.02.1-2.06z"/><path class="aocls-1" d="M36.07 21.33H6.9v2.06h29.2l-.03-2.06z"/><path class="aocls-5" d="M36.09 27.52H6.9v2.06H36q.06-1.03.09-2.06z"/><path class="aocls-1" d="M36 29.43H6.9v2.06H36v-.48-1.58zM35.63 13.22H6.9v2.06h28.88c-.06-.68-.11-1.37-.15-2.06z"/><path class="aocls-5" d="M36.05 19.26H6.9v2.06h29.17c0-.68-.01-1.32-.02-2.06z"/><path class="aocls-1" d="M35.65 9.09H6.9v2.07h28.67c0-.69.02-1.38.08-2.07z"/><path class="aocls-5" d="M35.57 11.16H6.9v2.06h28.73q-.06-1.03-.06-2.06zM35.75 8v-.1a5.66 5.66 0 0 1 0-.87H6.9v2.06h28.75c.02-.36.06-.72.1-1.09z"/><path class="aocls-1" d="M36 18.05v-.85H6.9v2.06h29.15c-.05-.4-.05-.8-.05-1.21z"/><path class="aocls-5" d="M35.78 15.28H6.9v2.06H36c-.1-.68-.16-1.34-.22-2.06z"/><path class="aocls-6" d="M36 18.05A45.73 45.73 0 0 1 35.75 8v-.1a5.66 5.66 0 0 1 0-.87H6.9v16.36h29.2c-.02-1.78-.03-3.56-.1-5.34z"/><path id="aoShape-2" data-name="Shape" class="aocls-7" d="M19.05 19.71a4.63 4.63 0 0 1-4.65-4.57 4.63 4.63 0 0 1 4.65-4.57 4.86 4.86 0 0 1 2.1.44A4.76 4.76 0 0 0 18 10a5.27 5.27 0 0 0-5.25 5.16A5.27 5.27 0 0 0 18 20.29a5.35 5.35 0 0 0 3.15-1 5.37 5.37 0 0 1-2.1.44z"/><path id="aoShape-3" data-name="Shape" class="aocls-7" d="M23.1 10.86l.45 2.8L25 11.31 24.15 14l2.4-1.47-1.95 2.02 2.85-.29-2.7 1 2.7.88-2.85-.29 1.95 2.06-2.4-1.47.85 2.68-1.5-2.21-.4 2.65-.3-2.65-1.65 2.21.85-2.66-2.4 1.47 2-2.06-2.7.29 2.55-.88-2.55-1 2.7.29-2-2.06L22 14l-.9-2.65 1.7 2.31z"/></g></g></g></svg><svg id="flag-circle-ms-inactive" data-name="Layer 1" viewBox="0 0 40 40" width="40" height="40" y="385"><defs><style>.apcls-1{fill:#fff}.apcls-2{fill:#111;fill-opacity:0;opacity:.6;isolation:isolate}.apcls-3{fill:none;stroke:gray}.apcls-4{clip-path:url(#apclip-path)}.apcls-5{fill:#5b5b5b}.apcls-6{fill:#dc241f}.apcls-7{fill:#141414}.apcls-8{fill:#c8c8c8}</style><clipPath id="apclip-path" transform="translate(4 4)"><circle id="ap_Ellipse_" data-name="&lt;Ellipse>" class="apcls-1" cx="16" cy="16.01" r="13"/></clipPath></defs><title>flag_MY_G</title><g id="apSettings"><g id="apFlags-icons"><g id="apflag_MY" data-name="flag MY"><path id="apboundingbox" class="apcls-2" d="M0 0h40v40H0z"/><path id="apShape" class="apcls-3" d="M20 5a15 15 0 1 0 15 15A15 15 0 0 0 20 5z"/></g></g></g><circle id="ap_Ellipse_2" data-name="&lt;Ellipse>" class="apcls-1" cx="20" cy="20.01" r="13"/><g class="apcls-4"><g id="apLayer_1-2" data-name="Layer 1"><g id="apGroup"><path class="apcls-1" d="M36.11 25.45H6.9v2.06h29.19v-.78c.02-.43.02-.85.02-1.28z"/><path class="apcls-5" d="M36.1 23.39H6.9v2.06h29.21q0-1.03-.01-2.06zM36 31.49H6.9v2.06h29q.1-1.02.1-2.06z"/><path class="apcls-1" d="M36.08 21.33H6.9v2.06h29.2c-.01-.69-.02-1.39-.02-2.06z"/><path class="apcls-5" d="M36.09 27.52H6.9v2.06H36q.06-1.03.09-2.06z"/><path class="apcls-1" d="M36 29.43H6.9v2.06H36v-.48-1.58zM35.63 13.22H6.9v2.06h28.88c-.06-.68-.11-1.37-.15-2.06z"/><path class="apcls-6" d="M36.05 19.26H6.9v2.06h29.18l-.03-2.06z"/><path class="apcls-1" d="M35.65 9.09H6.9v2.07h28.68c0-.69.02-1.38.07-2.07z"/><path class="apcls-6" d="M35.58 11.16H6.9v2.06h28.73q-.06-1.03-.05-2.06zM35.75 8v-.1a5.66 5.66 0 0 1 0-.87H6.9v2.06h28.75c.02-.36.06-.72.1-1.09z"/><path class="apcls-1" d="M36 18.05v-.85H6.9v2.06h29.15c-.05-.4-.05-.8-.05-1.21z"/><path class="apcls-6" d="M35.78 15.28H6.9v2.06H36c-.1-.68-.16-1.34-.22-2.06z"/><path class="apcls-7" d="M36 18.05A45.73 45.73 0 0 1 35.75 8v-.1a5.66 5.66 0 0 1 0-.87H6.9v16.36h29.2c-.02-1.78-.03-3.56-.1-5.34z"/><path id="apShape-2" data-name="Shape" class="apcls-8" d="M19.05 19.71a4.63 4.63 0 0 1-4.65-4.57 4.63 4.63 0 0 1 4.65-4.57 4.86 4.86 0 0 1 2.1.44A4.76 4.76 0 0 0 18 10a5.27 5.27 0 0 0-5.25 5.16A5.27 5.27 0 0 0 18 20.29a5.35 5.35 0 0 0 3.15-1 5.37 5.37 0 0 1-2.1.44z"/><path id="apShape-3" data-name="Shape" class="apcls-8" d="M23.1 10.86l.45 2.8 1.5-2.36-.9 2.7 2.4-1.47-1.95 2.02 2.85-.29-2.7 1 2.7.88-2.85-.29 1.95 2.06-2.4-1.47.9 2.65-1.5-2.21-.45 2.68-.3-2.65-1.65 2.21.9-2.65-2.4 1.47 2-2.06-2.7.29 2.55-.88-2.55-1 2.7.29-2-2.06 2.4 1.48-.9-2.65 1.65 2.31z"/></g></g></g></svg><svg id="flag-circle-ms-small" viewBox="0 0 22 22" width="22" height="22" y="425"><style>.aqst0{opacity:.6;fill:#111;fill-opacity:0;enable-background:new}.aqst1{fill:none;stroke:gray;stroke-width:.5538}.aqst2{fill:#FFF}.aqst3{clip-path:url(#aqSVGID_2_)}.aqst4{fill:#dc241f}.aqst5{fill:#010e66}.aqst6{fill:#ffd100}</style><title>flag_MY_S</title><g id="aqSettings"><g id="aqFlags-icons"><g id="aqflag_MY"><path id="aqboundingbox" class="aqst0" d="M0 0h22v22H0z"/><path id="aqShape" class="aqst1" d="M11 2.8c-4.6 0-8.3 3.7-8.3 8.2 0 4.6 3.7 8.3 8.2 8.3 4.6 0 8.3-3.7 8.3-8.2 0-4.6-3.6-8.3-8.2-8.3z"/></g></g></g><circle id="aq_Ellipse_2" class="aqst2" cx="11" cy="11" r="7.1"/><defs><circle id="aqSVGID_1_" cx="11" cy="11" r="7.1"/></defs><clipPath id="aqSVGID_2_"><use xlink:href="#aqSVGID_1_" overflow="visible"/></clipPath><g class="aqst3"><g id="aqLayer_1-2"><g id="aqGroup"><path class="aqst2" d="M19.9 14H3.8v1.1h16.1v-.4-.7z"/><path class="aqst4" d="M19.9 12.9H3.8V14h16.1v-1.1zM19.8 17.3h-16v1.1h15.9c0-.3.1-.7.1-1.1z"/><path class="aqst2" d="M19.8 11.7h-16v1.2h16.1c-.1-.4-.1-.8-.1-1.2z"/><path class="aqst4" d="M19.8 15.1h-16v1.1h16.1c-.1-.3-.1-.7-.1-1.1z"/><path class="aqst2" d="M19.8 16.2h-16v1.1h16V17v-.8zM19.6 7.3H3.8v1.1h15.9c-.1-.4-.1-.8-.1-1.1z"/><path class="aqst4" d="M19.8 10.6h-16v1.1h16.1c-.1-.3-.1-.7-.1-1.1z"/><path class="aqst2" d="M19.6 5H3.8v1.1h15.8V5z"/><path class="aqst4" d="M19.6 6.1H3.8v1.1h15.8V6.1zM19.7 4.4v-.5H3.8V5h15.8c0-.2 0-.4.1-.6z"/><path class="aqst2" d="M19.8 9.9v-.5h-16v1.2h16.1c-.1-.2-.1-.4-.1-.7z"/><path class="aqst4" d="M19.7 8.4H3.8v1.1h16c-.1-.3-.1-.7-.1-1.1z"/><path class="aqst5" d="M19.8 9.9c-.2-1.8-.3-3.7-.1-5.5v-.1-.5H3.8v9h16.1c-.1-.9-.1-1.9-.1-2.9z"/><path id="aqShape-2" class="aqst6" d="M10.5 10.8c-1.4 0-2.5-1.1-2.6-2.5 0-1.4 1.2-2.5 2.6-2.5.4 0 .8.1 1.2.2-.5-.4-1.1-.6-1.7-.6-1.7.1-3 1.4-3 2.9 0 1.6 1.3 2.8 2.9 2.8.6 0 1.2-.2 1.7-.6-.3.3-.7.4-1.1.3z"/><path id="aqShape-3" class="aqst6" d="M12.7 6l.3 1.5.8-1.3-.5 1.5 1.3-.8L13.5 8l1.6-.2-1.5.6 1.5.5-1.6-.2 1.1 1.1-1.3-.8.5 1.5-.8-1.2-.3 1.5-.2-1.5-.9 1.2.5-1.5-1.3.8 1.1-1.1-1.5.2 1.4-.5-1.4-.6 1.5.2-1.1-1.1 1.3.8-.5-1.5.9 1.3.2-1.5z"/></g></g></g></svg><svg id="flag-circle-th" data-name="Layer 1" viewBox="0 0 40 40" width="40" height="40" y="447"><defs><style>.arcls-1{fill:#fff}.arcls-2{fill:#111;fill-opacity:0;opacity:.6;isolation:isolate}.arcls-3{fill:none;stroke:gray}.arcls-4{clip-path:url(#arclip-path)}.arcls-5{fill:#de1018}.arcls-6{fill:#00247d}</style><clipPath id="arclip-path" transform="translate(4 4)"><circle id="ar_Ellipse_" data-name="&lt;Ellipse>" class="arcls-1" cx="16" cy="16.01" r="13"/></clipPath></defs><title>flag_TH</title><g id="arSettings"><g id="arFlags-icons"><g id="arflag_TH" data-name="flag TH"><path id="arboundingbox" class="arcls-2" d="M0 0h40v40H0z"/><path id="arShape" class="arcls-3" d="M20 5a15 15 0 1 0 15 15A15 15 0 0 0 20 5z"/></g></g></g><circle id="ar_Ellipse_2" data-name="&lt;Ellipse>" class="arcls-1" cx="20" cy="20.01" r="13"/><g class="arcls-4"><g id="arRectangle-path"><path class="arcls-5" d="M35.9 29H4.12v5H36c0-1.67-.06-3.33-.1-5z"/><path class="arcls-1" d="M35.77 24H4.11v5H35.9c-.05-1.67-.09-3.33-.13-5z"/><path class="arcls-6" d="M35.72 20c0-1.66.07-3.34.14-5H4q.07 4.5.09 9h31.68a174.9 174.9 0 0 1-.05-4z"/><path class="arcls-1" d="M36 10H4v5h31.86c.08-1.67.14-3.34.14-5z"/><path class="arcls-5" d="M35.79 6H3.88q0 2.5.08 5H36a41.54 41.54 0 0 0-.21-5z"/></g></g></svg><svg id="flag-circle-th-gray" data-name="Layer 1" viewBox="0 0 40 40" width="40" height="40" y="487"><defs><style>.ascls-1{fill:#fff}.ascls-2{fill:#111;fill-opacity:0;opacity:.6;isolation:isolate}.ascls-3{fill:none;stroke:gray}.ascls-4{clip-path:url(#asclip-path)}.ascls-5{fill:#4f4f4f}.ascls-6{fill:#232323}</style><clipPath id="asclip-path" transform="translate(4 4)"><circle id="as_Ellipse_" data-name="&lt;Ellipse>" class="ascls-1" cx="16" cy="16" r="13"/></clipPath></defs><title>flag_TH_G</title><g id="asSettings"><g id="asFlags-icons"><g id="asflag_TH_G" data-name="flag TH G"><path id="asboundingbox" class="ascls-2" d="M0 0h40v40H0z"/><path id="asShape" class="ascls-3" d="M20 5a15 15 0 1 0 15 15A15 15 0 0 0 20 5z"/></g></g></g><circle id="as_Ellipse_2" data-name="&lt;Ellipse>" class="ascls-1" cx="20" cy="20" r="13"/><g class="ascls-4"><g id="asRectangle-path"><path class="ascls-5" d="M34.66 29H4.49a41.06 41.06 0 0 0 .34 5h29.8c-.03-1.66-.01-3.33.03-5z"/><path class="ascls-1" d="M34.79 24H4.56c-.05 1.67-.09 3.34-.07 5h30.17c.05-1.67.1-3.33.13-5z"/><path class="ascls-6" d="M34.79 24v-3.23c0-1.94-.16-3.86-.31-5.77H4.29a52.53 52.53 0 0 1 .36 5.75c0 1.08-.05 2.17-.09 3.25h30.23z"/><path class="ascls-1" d="M34.07 10H4a50 50 0 0 0 .3 5h30.2c-.14-1.67-.29-3.33-.43-5z"/><path class="ascls-5" d="M33.79 6H4.42q0 .28-.1.58A18.56 18.56 0 0 0 4 11h30.15a136.7 136.7 0 0 1-.36-5z"/></g></g></svg><svg id="flag-circle-th-small" viewBox="0 0 22 22" width="22" height="22" y="527"><style>.atst0{opacity:.6;fill:#111;fill-opacity:0;enable-background:new}.atst1{fill:none;stroke:gray;stroke-width:.558}.atst2{fill:#FFF}.atst3{clip-path:url(#atSVGID_2_)}.atst4{fill:#de1018}.atst5{fill:#00247d}</style><title>flag_TH_S</title><g id="atSettings"><g id="atFlags-icons"><g id="atflag_TH"><path id="atboundingbox" class="atst0" d="M-.1-.1h22.2v22.2H-.1z"/><path id="atShape" class="atst1" d="M11 2.7c-4.6 0-8.3 3.7-8.3 8.3 0 4.6 3.7 8.3 8.3 8.3 4.6 0 8.3-3.7 8.3-8.3 0-4.6-3.7-8.3-8.3-8.3z"/></g></g></g><circle id="at_Ellipse_2" class="atst2" cx="11" cy="11" r="7.2"/><defs><circle id="atSVGID_1_" cx="11" cy="11" r="7.2"/></defs><clipPath id="atSVGID_2_"><use xlink:href="#atSVGID_1_" overflow="visible"/></clipPath><g class="atst3"><g id="atRectangle-path"><path class="atst4" d="M19.8 16H2.2v2.8h17.6c.1-1 0-1.9 0-2.8z"/><path class="atst2" d="M19.7 13.2H2.2V16h17.6c0-.9 0-1.9-.1-2.8z"/><path class="atst5" d="M19.7 11c0-.9 0-1.8.1-2.8H2.1c0 1.7.1 3.3.1 5h17.6c-.1-.7-.1-1.4-.1-2.2z"/><path class="atst2" d="M19.9 5.5H2.1v2.8h17.7c0-1 .1-1.9.1-2.8z"/><path class="atst4" d="M19.8 3.2H2.1V6h17.8c0-.9-.1-1.8-.1-2.8z"/></g></g></svg><svg id="flag-circle-vi" data-name="Layer 1" viewBox="0 0 40 40" width="40" height="40" y="549"><defs><style>.aucls-1{fill:#111;fill-opacity:0;opacity:.6;isolation:isolate}.aucls-2{fill:none;stroke:gray}.aucls-3{fill:#d0011b}.aucls-4{fill:#fcd116}</style></defs><title>flag_VN</title><g id="auSettings"><g id="auFlags-icons"><g id="auflag_VN" data-name="flag VN"><path id="auboundingbox" class="aucls-1" d="M0 0h40v40H0z"/><path id="auShape" class="aucls-2" d="M5 20A15 15 0 1 0 20 5 15 15 0 0 0 5 20z"/><g id="auVN"><circle id="auOval" class="aucls-3" cx="20" cy="20" r="13"/><path id="auShape-2" data-name="Shape" class="aucls-4" d="M20 12l2 6h6l-4.94 3.27L24.94 27 20 23.45 15.07 27 17 21.27 12 18h6l2-6z"/></g></g></g></g></svg><svg id="flag-circle-vi-gray" data-name="Layer 1" viewBox="0 0 40 40" width="40" height="40" y="589"><defs><style>.avcls-1{fill:#111;fill-opacity:0;opacity:.6;isolation:isolate}.avcls-2{fill:none;stroke:gray}.avcls-3{fill:#434343}.avcls-4{fill:#c9c9c9}</style></defs><title>flag_VN_G</title><g id="avSettings"><g id="avFlags-icons"><g id="avflag_VN_G" data-name="flag VN G"><path id="avboundingbox" class="avcls-1" d="M0 0h40v40H0z"/><path id="avShape" class="avcls-2" d="M20 5a15 15 0 1 0 15 15A15 15 0 0 0 20 5z"/><g id="avVN"><circle id="avOval" class="avcls-3" cx="20" cy="20" r="13"/><path id="avShape-2" data-name="Shape" class="avcls-4" d="M20 12l2 6h6l-4.94 3.27L24.94 27 20 23.45 15.07 27 17 21.27 12 18h6l2-6z"/></g></g></g></g></svg><svg id="flag-circle-vi-small" viewBox="0 0 22 22" width="22" height="22" y="629"><style>.awst0{opacity:.6;fill:#111;fill-opacity:0;enable-background:new}.awst1{fill:none;stroke:gray;stroke-width:.5473}.awst2{fill:#d0011b}.awst3{fill:#fcd116}</style><title>flag_VN_S</title><g id="awSettings"><g id="awFlags-icons"><g id="awflag_VN"><path id="awboundingbox" class="awst0" d="M0 0h22v22H0z"/><path id="awShape" class="awst1" d="M2.8 11c0 4.6 3.7 8.2 8.2 8.2s8.2-3.7 8.2-8.2-3.6-8.2-8.2-8.2S2.8 6.4 2.8 11z"/><g id="awVN"><circle id="awOval" class="awst2" cx="11" cy="11" r="7.1"/><path id="awShape-2" class="awst3" d="M11 6.6l1.1 3.3h3.3l-2.7 1.8 1 3.2-2.7-2-2.7 2 1.1-3.2-2.8-1.8h3.3L11 6.6z"/></g></g></g></g></svg><svg width="34" height="22" viewBox="0 0 34 22" id="free-shipping" y="651"><title>Freeshipping</title><path d="M34 16.557c0 .832-.796 1.77-1 1.98-.1.106-.298.207-.4.207-.1 0-.298-.105-.4-.207-.197-.206-.197-.625 0-.83.3-.314.7-.94.7-1.146V13.02c0-.625 0-1.355-.3-1.77-.197-.31-.298-.624-.496-.83-.1-.208-.198-.42-.3-.52-.298-.625-.7-1.25-.998-1.875-.198-.418-.497-.937-.7-1.355l-.4-.73c-.3-.52-1.095-1.044-1.693-1.044h-5.778V17.6h1c.298 0 .597.312.597.625 0 .312-.3.625-.598.625h-1.597c-.3 0-.598-.313-.598-.625V4.27c0-.313.298-.626.597-.626h6.283c.998 0 2.195.73 2.692 1.668l.396.726c.198.418.498.938.7 1.356.3.625.7 1.25.998 1.875.1.206.198.417.3.624.198.312.3.52.497.832.4.73.4 1.667.4 2.394L34 16.557zM17.15 7.5v.73h-3.19V3.957h3.093v.73h-2.297V5.73h2.195v.73h-2.194V7.6h2.394v-.1zm2.393 11.143h-7.48c-.298 0-.598-.312-.598-.625 0-.312.3-.625.6-.625h7.276V1.043H1.198v16.35h1.095c.3 0 .6.313.6.625 0 .313-.3.625-.6.625H1c-.5 0-1-.418-1-.832V.837C0 .312.4 0 1 0h18.446c.598 0 .998.312.998.832v16.975c.097.524-.404.836-.9.836zM5.983 4.687H3.89V5.73h1.794v.73H3.89v1.876h-.7V4.062h2.89v.625h-.097zm3.388 2.29l.798 1.25H9.27l-.598-.94c-.1-.206-.3-.417-.4-.518l-.2-.208c-.1 0-.1-.106-.197-.106H7.08v1.77h-.7v-4.27h1.896c.4 0 .598 0 .796.106.198.106.4.207.497.418.1.207.197.418.197.625 0 .313-.1.625-.3.832-.1.207-.298.313-.597.313 0 0 .1 0 .1.105.102.207.304.414.4.62zm-.496-1.458c.1-.107.1-.208.1-.313 0-.207-.1-.313-.197-.42-.1-.104-.3-.104-.598-.104H7.082v1.144h1c.197 0 .4 0 .496-.105.193-.097.294-.097.294-.203zM13.46 7.5v.73h-3.19V3.957h3.09v.73h-2.29V5.73h2.19v.73h-2.195V7.6h2.394v-.1zm-6.38 6.768c2.093 0 3.69 1.77 3.69 3.856S9.076 21.98 7.08 21.98c-2.095 0-3.692-1.77-3.692-3.856s1.698-3.856 3.69-3.856zm0 6.562c1.394 0 2.59-1.25 2.59-2.706 0-1.457-1.196-2.71-2.59-2.71-1.396 0-2.592 1.25-2.592 2.705 0 1.46 1.196 2.71 2.59 2.71zM30.21 10.413H23.63c-.198 0-.497-.207-.497-.418V6.25c0-.207.198-.42.497-.42h3.69c.6 0 1.396.42 1.695 1.044l.198.42c.1.205.3.518.4.73.2.417.4.73.6 1.042l.197.313c.1.104.1.205.198.417.1.105.1.312 0 .418-.097.097-.198.198-.396.198zm-.7-.937c-.198-.418-.4-.73-.598-1.145-.1-.206-.3-.518-.4-.73l-.198-.417c-.198-.313-.6-.52-.898-.52h-3.19v2.813h5.284zm-1.495 4.792c2.094 0 3.69 1.77 3.69 3.856s-1.693 3.855-3.69 3.855c-2.095 0-3.69-1.77-3.69-3.856s1.595-3.856 3.69-3.856zm0 6.562c1.394 0 2.59-1.25 2.59-2.706 0-1.457-1.192-2.71-2.59-2.71-1.4 0-2.592 1.25-2.592 2.705 0 1.46 1.197 2.71 2.592 2.71z" fill="#9CA73B" fill-rule="evenodd"/></svg><svg width="34" height="22" viewBox="0 0 34 22" id="free-shipping-grey" y="673"><title>Free-Shipping grey</title><path d="M34 16.557c0 .832-.796 1.77-1 1.98-.1.106-.298.207-.4.207-.1 0-.298-.105-.4-.207-.197-.206-.197-.625 0-.83.3-.314.7-.94.7-1.146V13.02c0-.625 0-1.355-.3-1.77-.197-.31-.298-.624-.496-.83-.1-.208-.198-.42-.3-.52-.298-.625-.7-1.25-.998-1.875-.198-.418-.497-.937-.7-1.355l-.4-.73c-.3-.52-1.095-1.044-1.693-1.044h-5.778V17.6h1c.298 0 .597.312.597.625 0 .312-.3.625-.598.625h-1.597c-.3 0-.598-.313-.598-.625V4.27c0-.313.298-.626.597-.626h6.283c.998 0 2.195.73 2.692 1.668l.396.726c.198.418.498.938.7 1.356.3.625.7 1.25.998 1.875.1.206.198.417.3.624.198.312.3.52.497.832.4.73.4 1.667.4 2.394L34 16.557zM17.15 7.5v.73h-3.19V3.957h3.093v.73h-2.297V5.73h2.195v.73h-2.194V7.6h2.394v-.1zm2.393 11.143h-7.48c-.298 0-.598-.312-.598-.625 0-.312.3-.625.6-.625h7.276V1.043H1.198v16.35h1.095c.3 0 .6.313.6.625 0 .313-.3.625-.6.625H1c-.5 0-1-.418-1-.832V.837C0 .312.4 0 1 0h18.446c.598 0 .998.312.998.832v16.975c.097.524-.404.836-.9.836zM5.983 4.687H3.89V5.73h1.794v.73H3.89v1.876h-.7V4.062h2.89v.625h-.097zm3.388 2.29l.798 1.25H9.27l-.598-.94c-.1-.206-.3-.417-.4-.518l-.2-.208c-.1 0-.1-.106-.197-.106H7.08v1.77h-.7v-4.27h1.896c.4 0 .598 0 .796.106.198.106.4.207.497.418.1.207.197.418.197.625 0 .313-.1.625-.3.832-.1.207-.298.313-.597.313 0 0 .1 0 .1.105.102.207.304.414.4.62zm-.496-1.458c.1-.107.1-.208.1-.313 0-.207-.1-.313-.197-.42-.1-.104-.3-.104-.598-.104H7.082v1.144h1c.197 0 .4 0 .496-.105.193-.097.294-.097.294-.203zM13.46 7.5v.73h-3.19V3.957h3.09v.73h-2.29V5.73h2.19v.73h-2.195V7.6h2.394v-.1zm-6.38 6.768c2.093 0 3.69 1.77 3.69 3.856S9.076 21.98 7.08 21.98c-2.095 0-3.692-1.77-3.692-3.856s1.698-3.856 3.69-3.856zm0 6.562c1.394 0 2.59-1.25 2.59-2.706 0-1.457-1.196-2.71-2.59-2.71-1.396 0-2.592 1.25-2.592 2.705 0 1.46 1.196 2.71 2.59 2.71zM30.21 10.413H23.63c-.198 0-.497-.207-.497-.418V6.25c0-.207.198-.42.497-.42h3.69c.6 0 1.396.42 1.695 1.044l.198.42c.1.205.3.518.4.73.2.417.4.73.6 1.042l.197.313c.1.104.1.205.198.417.1.105.1.312 0 .418-.097.097-.198.198-.396.198zm-.7-.937c-.198-.418-.4-.73-.598-1.145-.1-.206-.3-.518-.4-.73l-.198-.417c-.198-.313-.6-.52-.898-.52h-3.19v2.813h5.284zm-1.495 4.792c2.094 0 3.69 1.77 3.69 3.856s-1.693 3.855-3.69 3.855c-2.095 0-3.69-1.77-3.69-3.856s1.595-3.856 3.69-3.856zm0 6.562c1.394 0 2.59-1.25 2.59-2.706 0-1.457-1.192-2.71-2.59-2.71-1.4 0-2.592 1.25-2.592 2.705 0 1.46 1.197 2.71 2.592 2.71z" fill="#9C999D" fill-rule="evenodd"/></svg><svg width="15" height="26" viewBox="0 0 15 26" id="location-green" y="695"><title>location-green</title><g fill="none" fill-rule="evenodd"><path d="M11.12 13.494c3.184-2.174 4.025-6.937 1.883-10.094C10.86.24 6.545-.557 3.363 1.617.176 3.794-.665 8.115 1.478 11.274a6.81 6.81 0 0 0 2.45 2.196l3.558 11.363s3.325-11.128 3.633-11.34" fill="#FFF"/><path d="M7.495 25.998l-3.85-12.293a7.104 7.104 0 0 1-2.448-2.24C-1.047 8.158-.163 3.613 3.17 1.336A7.31 7.31 0 0 1 7.306.05a7.212 7.212 0 0 1 5.98 3.157c2.264 3.34 1.364 8.245-1.92 10.534-.356.687-2.353 7.18-3.55 11.19L7.495 26zM7.305.735A6.63 6.63 0 0 0 3.556 1.9C.53 3.965-.273 8.084 1.76 11.08a6.433 6.433 0 0 0 2.33 2.087l.122.066L7.48 23.67c3.06-10.192 3.33-10.378 3.45-10.46 2.974-2.03 3.828-6.616 1.79-9.618A6.53 6.53 0 0 0 7.307.735z" fill="#107542"/><path d="M10.417 3.802l-4.2 5.247L3.96 7.36l-1.077.23 3.163 2.495.67-.143 4.165-5.445a4.678 4.678 0 0 0-.463-.695" fill="#107542"/></g></svg><svg width="15" height="26" viewBox="0 0 15 26" id="location-red" y="721"><title>location-red</title><g fill="none" fill-rule="evenodd"><path d="M10.537 13.102c3.182-2.175 4.023-6.938 1.88-10.095C10.276-.15 5.96-.95 2.778 1.225-.407 3.4-1.25 7.722.894 10.88a6.81 6.81 0 0 0 2.45 2.197l3.56 11.363s3.324-11.128 3.633-11.338" fill="#FFF"/><path d="M7.248 25.948l-3.85-12.294a7.104 7.104 0 0 1-2.45-2.24C-1.294 8.108-.41 3.563 2.923 1.285A7.31 7.31 0 0 1 7.06 0a7.212 7.212 0 0 1 5.977 3.156c2.266 3.34 1.366 8.245-1.92 10.535-.355.687-2.352 7.18-3.55 11.19l-.32 1.068zM7.058.684A6.63 6.63 0 0 0 3.307 1.85C.284 3.915-.52 8.033 1.513 11.03a6.433 6.433 0 0 0 2.328 2.087l.124.065 3.27 10.436c3.058-10.19 3.33-10.376 3.448-10.457 2.974-2.032 3.828-6.616 1.79-9.62A6.53 6.53 0 0 0 7.06.685z" fill="#BD252C"/><path d="M6.986 7.516l1.406 2.21h.884L7.44 6.97 9.19 4.35h-.848l-1.32 2.057L5.69 4.35H4.8l1.75 2.618-1.868 2.76h.86l1.444-2.212" fill="#BD252B"/></g></svg><svg width="36" height="40" viewBox="0 0 89 100" id="logo-buyer-protection" y="747"><title>SG/PH</title><g fill="none" fill-rule="evenodd"><path d="M82.616 28.298C82.6 39.13 78.57 52.345 71.562 64.558c-6.856 11.95-16.2 22.02-25.67 27.676a2.812 2.812 0 0 1-2.42.478 2.904 2.904 0 0 1-.832-.362c-9.522-5.64-18.924-15.76-25.82-27.786C9.818 52.344 5.797 39.127 5.786 28.297v-.032a2.805 2.805 0 0 1 1.413-2.43c9.42-5.372 22.905-12.006 37-12.006 14.1 0 27.582 6.633 37.004 12.006a2.805 2.805 0 0 1 1.412 2.43v.032zM-.234 24.06v.038c.01 12.528 4.662 27.817 12.762 41.95 7.977 13.913 18.854 25.617 29.866 32.14a3.39 3.39 0 0 0 .962.42 3.26 3.26 0 0 0 2.403-.293c.14-.077.268-.165.398-.26C57.11 91.514 67.92 79.868 75.85 66.046c8.107-14.13 12.77-29.417 12.787-41.946v-.04C88.633 22.9 60.51-.242 44.2-.242 27.896-.243-.23 22.897-.234 24.06z" fill="#1B2E38"/><path d="M8.748 29.288a2.588 2.588 0 0 0-.263 1.088v.03c.01 10.07 3.748 22.36 10.258 33.72 6.41 11.18 15.154 20.59 24.005 25.832a2.724 2.724 0 0 0 .773.337c.22.058.445.085.672.085a2.627 2.627 0 0 0 1.582-.53c8.804-5.258 17.492-14.618 23.866-25.73C76.155 52.766 79.903 40.48 79.916 30.41v-.03c0-.416-.113-.81-.295-1.17l-35.547 8.793L8.748 29.29" fill="#1B2E38"/><path d="M43.848 34.63l33.125-7.948c-8.077-4.608-19.92-10.214-33.126-10.214-13.207 0-25.05 5.606-33.127 10.214l33.128 7.947" fill="#BF9435"/><path d="M60.832 59.468c0 9.173-7.446 16.61-16.63 16.61-9.186 0-16.632-7.437-16.632-16.61 0-9.172 7.446-16.608 16.63-16.608 9.186 0 16.632 7.436 16.632 16.608m.99 0c0-9.718-7.89-17.597-17.62-17.597-9.733 0-17.623 7.88-17.623 17.598 0 9.72 7.89 17.598 17.62 17.598 9.733 0 17.622-7.88 17.622-17.598" fill="#FFF"/><path d="M60.832 59.468c0 9.173-7.446 16.61-16.63 16.61-9.186 0-16.632-7.437-16.632-16.61 0-9.172 7.446-16.608 16.63-16.608 9.186 0 16.632 7.436 16.632 16.608zm.99 0c0-9.718-7.89-17.597-17.62-17.597-9.733 0-17.623 7.88-17.623 17.598 0 9.72 7.89 17.598 17.62 17.598 9.733 0 17.622-7.88 17.622-17.598z" stroke="#FFF" stroke-width=".386"/><path d="M50.325 61.03a7.15 7.15 0 0 0-1.387-.645L45.843 53.5h-1.01L39.47 65.437h.99l1.3-2.934h.002l.19-.43c1.058-.813 2.497-1.232 3.944-1.257 1.413-.024 2.847.233 3.967.954l.465-.74zm-2.486-.942a9.122 9.122 0 0 0-1.946-.173c-1.15.023-2.294.26-3.308.71l2.744-6.24 2.51 5.703z" fill="#FFF"/><path d="M50.325 61.03a7.15 7.15 0 0 0-1.387-.645L45.843 53.5h-1.01L39.47 65.437h.99l1.3-2.934h.002l.19-.43c1.058-.813 2.497-1.232 3.944-1.257 1.413-.024 2.847.233 3.967.954l.465-.74zm-2.486-.942a9.122 9.122 0 0 0-1.946-.173c-1.15.023-2.294.26-3.308.71l2.744-6.24 2.51 5.703z" stroke="#FFF" stroke-width=".386"/><path d="M47.262 53.5l.383.852h6.276l-6.58 10.54.246.546h6.683l.406-.905h-6.063l6.473-10.23.003-.804H47.26" fill="#FFF"/><path d="M47.262 53.5l.383.852h6.276l-6.58 10.54.246.546h6.683l.406-.905h-6.063l6.473-10.23.003-.804H47.26z" stroke="#FFF" stroke-width=".386"/><path d="M33.312 53.5v11.938h5.62l.393-.87h-5.09v-11.07h-.923" fill="#FFF"/><path d="M33.312 53.5v11.938h5.62l.393-.87h-5.09v-11.07h-.923z" stroke="#FFF" stroke-width=".386"/></g></svg><svg width="20" height="23" viewBox="0 0 20 23" id="logo-buyer-protection-small" y="787"><title>UPS small</title><g fill="none" fill-rule="evenodd"><path d="M18.5 6.662c0 2.46-.885 5.552-2.5 8.407-1.5 2.775-3.577 5.114-5.77 6.344 0 0-.115 0-.115.12 0 0-.115.118-.192.118h-.307s-.115 0-.115-.12c-2.077-1.348-4.27-3.687-5.77-6.463-1.576-2.856-2.5-5.83-2.5-8.408 0-.198.116-.396.308-.515C3.73 4.917 6.73 3.37 9.885 3.37c3.192 0 6.153 1.547 8.27 2.777.268.12.345.317.345.515zM0 5.75c0 2.855 1 6.464 2.885 9.755 1.807 3.173 4.192 5.948 6.653 7.376 0 0 .116 0 .116.12h.307c.115 0 .192 0 .384-.12 0 0 .116 0 .116-.118 2.5-1.546 4.884-4.203 6.653-7.376C18.923 12.096 20 8.606 20 5.63 19.885 5.434 13.615.08 9.962.08 6.308.08 0 5.432 0 5.75z" fill="#1A3646"/><path d="M2 6.98v.198c0 2.38.808 5.115 2.308 7.812 1.384 2.577 3.384 4.72 5.384 5.948H10.115c.116 0 .193 0 .308-.12h.115c2-1.228 3.885-3.37 5.385-5.947 1.5-2.656 2.308-5.432 2.308-7.81 0-.12 0-.2-.115-.32l-7.96 2.063L2 6.98z" fill="#1A3646"/><path d="M9.846 8.21l7.462-1.865c-1.808-1.03-4.462-2.38-7.462-2.38S4.27 5.196 2.5 6.346L9.846 8.21z" fill="#C99B2E"/><path d="M13.615 13.96c0 2.14-1.692 3.806-3.692 3.806S6.23 16.02 6.23 13.96c0-2.063 1.578-3.888 3.693-3.888s3.692 1.745 3.692 3.887m.308 0c0-2.262-1.808-4.086-3.96-4.086C7.768 9.874 6 11.738 6 13.96c0 2.26 1.808 4.083 3.962 4.083 2.192.04 3.96-1.943 3.96-4.084" fill="#FFF"/><path d="M13.615 13.96c0 2.14-1.692 3.806-3.692 3.806S6.23 16.02 6.23 13.96c0-2.063 1.578-3.888 3.693-3.888s3.692 1.745 3.692 3.887zm.308 0c0-2.262-1.808-4.086-3.96-4.086C7.768 9.874 6 11.738 6 13.96c0 2.26 1.808 4.083 3.962 4.083 2.192.04 3.96-1.943 3.96-4.084z" stroke="#FFF" stroke-width=".2"/><path d="M11.346 14.276c-.115-.12-.192-.12-.308-.12l-.692-1.625h-.192l-1.192 2.777h.192l.308-.714v-.12c.192-.197.615-.316.884-.316.308 0 .616.12.885.198l.116-.08zm-.615-.198h-.384c-.308 0-.5.12-.692.198l.615-1.428.46 1.23z" fill="#FFF"/><path d="M11.346 14.276c-.115-.12-.192-.12-.308-.12l-.692-1.625h-.192l-1.192 2.777h.192l.308-.714v-.12c.192-.197.615-.316.884-.316.308 0 .616.12.885.198l.116-.08zm-.615-.198h-.384c-.308 0-.5.12-.692.198l.615-1.428.46 1.23z" stroke="#FFF" stroke-width=".2"/><path d="M10.654 12.53l.077.2h1.424l-1.5 2.458.077.12h1.5l.116-.2h-1.384l1.384-2.38.077-.197h-1.77z" fill="#FFF"/><path d="M10.654 12.53l.077.2h1.424l-1.5 2.458.077.12h1.5l.116-.2h-1.384l1.384-2.38.077-.197h-1.77z" stroke="#FFF" stroke-width=".2"/><path d="M7.462 12.53v2.777H8.77l.076-.198H7.77v-2.58H7.46z" fill="#FFF"/><path d="M7.462 12.53v2.777H8.77l.076-.198H7.77v-2.58H7.46z" stroke="#FFF" stroke-width=".2"/></g></svg><svg width="17" height="18" viewBox="0 0 17 18" id="logo-satisfaction-guaranteed" y="810"><title>SG small</title><defs><path id="bda" d="M0 0h16.86v17.133H0z"/><path id="bdc" d="M0 0h16.86v17.133H0z"/></defs><g fill="none" fill-rule="evenodd"><mask id="bdb" fill="#fff"><use xlink:href="#bda"/></mask><path d="M9.576 10.467c-.07.033-.14.1-.21.133-.31.167-.623.267-.97.267-.174 0-.347-.034-.52-.067-.105-.033-.174-.067-.278-.1-.14-.067-.243-.1-.347-.167C4.79 9.033 2.36 7.033.036 4.6c.347 1.967 1.145 4.133 2.29 6.167 1.56 2.766 3.642 5.066 5.793 6.366a.11.11 0 0 0 .07.034c.034 0 .034.033.07.033.103.033.242 0 .346-.033.035 0 .035-.034.07-.034 2.15-1.3 4.232-3.633 5.76-6.366 1.144-2.067 1.942-4.234 2.288-6.2-2.255 2.4-4.683 4.4-7.146 5.9" fill="#CA9B2E" mask="url(#bdb)"/><g><mask id="bdd" fill="#fff"><use xlink:href="#bdc"/></mask><path d="M8.153 9.133a.43.43 0 0 1 .104.067s.035 0 .07.033c.104.034.208 0 .312-.033l.033-.033.07-.067c2.775-1.7 5.55-4.1 8.084-6.967l-.105-.1C14.606.8 11.588.1 8.432.1 5.27.1 2.22.8.138 2.033c-.036.034-.105.067-.14.1 2.567 2.9 5.343 5.3 8.153 7" fill="#193546" mask="url(#bdd)"/></g></g></svg><svg version="1" viewBox="0 0 18.8 18.1" width="18.8" height="18.1" id="magnify-grey" y="828"><path d="M7.8 13.6c-3.2 0-5.7-2.6-5.7-5.7 0-3.2 2.6-5.7 5.7-5.7 3.2 0 5.7 2.6 5.7 5.7.1 3.2-2.5 5.7-5.7 5.7z" fill="none" stroke="#8e8e8d" stroke-width="2" stroke-miterlimit="10"/><path d="M16.5 15.2l-3.7-3.4c-.1-.1-.4-.1-.5 0l-.3.3c-.1.1-.1.4 0 .5l3.7 3.4c.1.1.4.1.5 0l.3-.3c.1-.1.1-.3 0-.5z" fill="#8e8e8d" stroke="#8e8e8d" stroke-miterlimit="10"/></svg><svg width="30" height="22" viewBox="0 0 30 22" id="oversea" y="847"><title>oversea</title><path d="M29.978 6.033c-.1.408-.398.922-1.098 1.23l-10.073 4.194s-.9.307-1.795.307c-.696 0-1.198-.205-1.596-.51l-2.59-2.356c-.2-.102-.2-.306-.2-.51 0-.204.1-.408.3-.51.1 0 .596-.41 1.396-.41.298 0 .597 0 .9.103l1.296.41h.398c.3 0 .598-.102.9-.204l.597-.307L15.92 5.32c-.198-.102-.297-.408-.198-.612 0-.204.2-.408.398-.51.1 0 .697-.307 1.497-.307.597 0 1.098.103 1.695.307 1.297.51 3.39 1.33 3.988 1.33l3.29-1.33c.1 0 .797-.307 1.696-.307.697 0 1.198.205 1.596.613l.1.102c-.303.098.095.71-.004 1.425zm-1.397-.51c-.098-.102-.397-.204-.596-.204-.597 0-1.098.203-1.098.203l-3.39 1.432h-.4C22 6.955 19.11 5.83 18.61 5.523c-.298-.102-.497-.204-.796-.204l2.193 1.84c.2.102.298.408.2.612 0 .204-.2.408-.4.51l-1.595.715c-.398.204-.9.306-1.397.306s-.796-.102-.796-.102l-1.198-.408 1.496 1.33c.2.205.497.205.796.205.597 0 1.297-.204 1.297-.204L28.48 5.93c.2-.1.398-.203.398-.305-.2 0-.3-.102-.3-.102zm-8.476-2.25c-1.595-1.228-3.49-1.942-5.683-1.942-5.184 0-9.37 4.295-9.37 9.613 0 1.127.198 2.147.497 3.172 1.695-.408 4.087-1.23 7.378-2.556.3-.103.697 0 .9.408.1.306 0 .714-.4.922-3.09 1.23-5.483 2.045-7.278 2.555 1.596 3.07 4.688 5.217 8.278 5.217 5.186 0 9.372-4.294 9.372-9.613v-.103l1.298-.51v.612c0 6.032-4.788 10.942-10.67 10.942-4.286 0-7.88-2.555-9.674-6.24-.998.204-1.794.306-2.39.306-1.3 0-1.796-.41-2.095-.817-.9-1.33.796-3.272 1.1-3.68.198-.307.695-.307.898 0 .298.204.298.714 0 .922-.597.714-1.098 1.74-1 1.943 0 0 .4.51 2.894 0-.298-1.127-.497-2.25-.497-3.478C3.65 4.91 8.436 0 14.322 0c3.49 0 6.483 1.637 8.477 4.294-.403-.102-1.597-.51-2.696-1.02z" fill="#9CA73B" fill-rule="evenodd"/></svg><svg width="30" height="22" viewBox="0 0 30 22" id="oversea-grey" y="869"><title>oversea grey</title><path d="M29.978 6.033c-.1.408-.398.922-1.098 1.23l-10.073 4.194s-.9.307-1.795.307c-.696 0-1.198-.205-1.596-.51l-2.59-2.356c-.2-.102-.2-.306-.2-.51 0-.204.1-.408.3-.51.1 0 .596-.41 1.396-.41.298 0 .597 0 .9.103l1.296.41h.398c.3 0 .598-.102.9-.204l.597-.307L15.92 5.32c-.198-.102-.297-.408-.198-.612 0-.204.2-.408.398-.51.1 0 .697-.307 1.497-.307.597 0 1.098.103 1.695.307 1.297.51 3.39 1.33 3.988 1.33l3.29-1.33c.1 0 .797-.307 1.696-.307.697 0 1.198.205 1.596.613l.1.102c-.303.098.095.71-.004 1.425zm-1.397-.51c-.098-.102-.397-.204-.596-.204-.597 0-1.098.203-1.098.203l-3.39 1.432h-.4C22 6.955 19.11 5.83 18.61 5.523c-.298-.102-.497-.204-.796-.204l2.193 1.84c.2.102.298.408.2.612 0 .204-.2.408-.4.51l-1.595.715c-.398.204-.9.306-1.397.306s-.796-.102-.796-.102l-1.198-.408 1.496 1.33c.2.205.497.205.796.205.597 0 1.297-.204 1.297-.204L28.48 5.93c.2-.1.398-.203.398-.305-.2 0-.3-.102-.3-.102zm-8.476-2.25c-1.595-1.228-3.49-1.942-5.683-1.942-5.184 0-9.37 4.295-9.37 9.613 0 1.127.198 2.147.497 3.172 1.695-.408 4.087-1.23 7.378-2.556.3-.103.697 0 .9.408.1.306 0 .714-.4.922-3.09 1.23-5.483 2.045-7.278 2.555 1.596 3.07 4.688 5.217 8.278 5.217 5.186 0 9.372-4.294 9.372-9.613v-.103l1.298-.51v.612c0 6.032-4.788 10.942-10.67 10.942-4.286 0-7.88-2.555-9.674-6.24-.998.204-1.794.306-2.39.306-1.3 0-1.796-.41-2.095-.817-.9-1.33.796-3.272 1.1-3.68.198-.307.695-.307.898 0 .298.204.298.714 0 .922-.597.714-1.098 1.74-1 1.943 0 0 .4.51 2.894 0-.298-1.127-.497-2.25-.497-3.478C3.65 4.91 8.436 0 14.322 0c3.49 0 6.483 1.637 8.477 4.294-.403-.102-1.597-.51-2.696-1.02z" fill="#9C999D" fill-rule="evenodd"/></svg><svg id="product-rating-grey" viewBox="-300 390 11 13" width="11" height="13" y="891"><style>.bhst0{fill:#e2e2e3}.bhst1{fill:#FFF}</style><title>rating grey</title><g id="bhPage-1"><g id="bhrating-grey"><g id="bhShape"><path class="bhst0" d="M-294.6 402c3 0 5.4-2.4 5.4-5.4 0-3-2.4-5.4-5.4-5.4s-5.4 2.4-5.4 5.4c0 2.9 2.4 5.4 5.4 5.4"/><path class="bhst1" d="M-294.6 392.8l.9 2.8h2.9l-2.4 1.7.9 2.8-2.3-1.7-2.3 1.7.9-2.8-2.3-1.7h2.9l.8-2.8z"/></g></g></g></svg><svg id="product-rating-orange" viewBox="-300 390 11 13" width="11" height="13" y="904"><style>.bist0{fill:#ffab24}.bist1{fill:#FFF}</style><title>rating blue</title><g id="biPage-1"><g id="birating-blue"><g id="biShape"><path class="bist0" d="M-294.5 401.9c3 0 5.4-2.4 5.4-5.4s-2.4-5.4-5.4-5.4-5.4 2.4-5.4 5.4c0 2.9 2.4 5.4 5.4 5.4"/><path class="bist1" d="M-294.5 392.7l.9 2.8h2.9l-2.4 1.7.9 2.8-2.3-1.7-2.3 1.7.9-2.8-2.3-1.7h2.9l.8-2.8z"/></g></g></g></svg><svg width="11" height="11" viewBox="0 0 11 11" id="seller-rating-blue" y="917"><title>rating blue</title><g fill="none" fill-rule="evenodd"><path d="M5.43 10.966c2.992 0 5.433-2.44 5.433-5.432 0-2.99-2.44-5.43-5.432-5.43C2.44.103 0 2.543 0 5.533c0 2.99 2.44 5.432 5.43 5.432" fill="#009BB6"/><path d="M5.43 1.753l.895 2.75h2.922l-2.372 1.72.894 2.75-2.34-1.72-2.336 1.72.893-2.75-2.337-1.72h2.887l.894-2.75z" fill="#FFF"/></g></svg><svg width="11" height="11" viewBox="0 0 11 11" id="seller-rating-grey" y="928"><title>rating grey</title><g fill="none" fill-rule="evenodd"><path d="M5.43 10.966c2.992 0 5.433-2.44 5.433-5.432 0-2.99-2.44-5.43-5.432-5.43C2.44.103 0 2.543 0 5.533c0 2.99 2.44 5.432 5.43 5.432" fill="#E2E2E3"/><path d="M5.43 1.753l.895 2.75h2.922l-2.372 1.72.894 2.75-2.34-1.72-2.336 1.72.893-2.75-2.337-1.72h2.887l.894-2.75z" fill="#FFF"/></g></svg><svg width="11" height="11" viewBox="0 0 11 11" id="seller-rating-half-blue" y="939"><title>rating half grey</title><defs><path id="bla" d="M-.106 5.534c0 2.99 2.52 5.432 5.606 5.432 3.087 0 5.606-2.44 5.606-5.432 0-2.99-2.52-5.43-5.606-5.43-3.087 0-5.606 2.44-5.606 5.43"/></defs><g fill="none" fill-rule="evenodd"><path d="M5.5 10.966c3.087 0 5.606-2.44 5.606-5.432 0-2.99-2.52-5.43-5.606-5.43-3.087 0-5.606 2.44-5.606 5.43 0 2.99 2.52 5.432 5.606 5.432" fill="#E3E3E4"/><mask id="blb" fill="#fff"><use xlink:href="#bla"/></mask><path fill="#009BB6" mask="url(#blb)" d="M-6.742-1.375H5.464v14.438H-6.742z"/><path d="M5.5 1.753l.923 2.75H9.44l-2.45 1.72.958 2.75L5.5 7.286 3.087 8.973l.923-2.75-2.413-1.72h2.98l.923-2.75z" fill="#FFF"/></g></svg><svg preserveAspectRatio="xMidYMid" width="12" height="11.969" viewBox="0 0 12 11.969" id="seller-rating-pen" y="950"><defs><style>.bmcls-1{fill:#33a3b3;fill-rule:evenodd}</style></defs><path d="M9.06.173L7.527 1.706l2.722 2.726L11.78 2.9a.723.723 0 0 0 0-1.023L10.08.173a.722.722 0 0 0-1.02 0zm-2.266 2.26L1.35 7.886l2.722 2.725 5.444-5.45-2.722-2.726zM0 11.964l3.3-.764L.75 8.644 0 11.963z" class="bmcls-1"/></svg><svg width="32" height="32" viewBox="-1 -1 33 33" id="social-blogger" y="962"><title>blogger</title><g fill="none" fill-rule="evenodd"><circle stroke="#F57D00" stroke-width="2" cx="15" cy="15" r="15"/><path d="M22 16.108c0-.98 0-1.678-.495-2.272-.53-.7-1.377-.804-2.084-.84.107-.488.142-1.012.107-1.606 0-1.957-1.484-3.355-3.497-3.39H12.85c-1.2 0-2.154.35-2.826 1.048-.423.42-.953 1.19-1.024 2.412v5.242c0 1.397.212 2.41.954 3.18.706.734 1.766 1.118 3.108 1.118h4.84c1.2 0 2.226-.42 2.968-1.153.74-.734 1.13-1.782 1.13-3.04v-.7zm-8.832-5.487h2.65c.636 0 1.13.56 1.095 1.19 0 .628-.53 1.048-1.13 1.048h-2.685a1.09 1.09 0 0 1-1.095-1.154 1.158 1.158 0 0 1 1.165-1.083zm4.98 7.375h-5.297a1.11 1.11 0 0 1-1.13-1.12c0-.628.495-1.117 1.13-1.117h5.3c.635 0 1.13.49 1.13 1.118 0 .63-.53 1.12-1.13 1.12z" fill="#F57D00"/></g></svg><svg width="32" height="32" viewBox="-1 -1 33 33" id="social-facebook" y="994"><title>facebook</title><g fill="none" fill-rule="evenodd"><circle stroke="#3B5998" stroke-width="2" cx="15" cy="15" r="15"/><path d="M18.5 10.345h-1.44c-1.138 0-1.366.483-1.366 1.207v1.586h2.73v2.483h-2.73V22H12.85v-6.345H10.5v-2.517h2.35V11.31c0-2.138 1.44-3.31 3.527-3.31H18.5v2.345z" fill="#3B5998"/></g></svg><svg width="32" height="32" viewBox="-1 -1 33 33" id="social-google" y="1026"><title>google</title><g fill="none" fill-rule="evenodd"><circle stroke="#DC4E41" stroke-width="2" cx="15" cy="15" r="15"/><g transform="translate(8 8)" fill="#DC4E41"><path d="M7.912 9.143L7.2 8.57c-.225-.19-.525-.418-.525-.875s.3-.724.563-.99c.824-.686 1.687-1.372 1.687-2.857 0-1.524-.938-2.362-1.425-2.743h1.238l1.274-.838h-3.9c-1.087 0-2.625.266-3.75 1.22-.862.76-1.275 1.79-1.275 2.703 0 1.562 1.2 3.162 3.3 3.162.188 0 .413-.038.638-.038-.113.23-.188.457-.188.8 0 .61.3 1.03.6 1.372-.9.076-2.55.152-3.787.914-1.162.724-1.537 1.752-1.537 2.476 0 1.486 1.387 2.895 4.275 2.895 3.412 0 5.25-1.903 5.25-3.808-.075-1.372-.863-2.057-1.726-2.82zM5.287 6.82c-1.724 0-2.474-2.25-2.474-3.62 0-.533.112-1.067.45-1.486.3-.42.862-.685 1.387-.685 1.65 0 2.512 2.284 2.512 3.732 0 .38-.037 1.028-.487 1.486-.337.304-.862.57-1.388.57zm.038 8.113c-2.138 0-3.488-1.028-3.488-2.476 0-1.447 1.275-1.905 1.726-2.095.825-.267 1.912-.343 2.1-.343.187 0 .3 0 .45.037 1.5 1.105 2.174 1.638 2.174 2.667-.037 1.295-1.05 2.21-2.962 2.21zM12.938 6.78V4.763h-.976v2.02H9.976v.99h1.988v2.057h.975V7.77h1.987v-.99h-1.988z"/></g></g></svg><svg width="32" height="32" viewBox="-1 -1 33 33" id="social-instagram" y="1058"><title>instagram</title><g fill="none" fill-rule="evenodd"><circle stroke="#3F729B" stroke-width="2" cx="15" cy="15" r="15"/><path d="M20.6 8H9.4C8.63 8 8 8.63 8 9.4v11.2c0 .77.63 1.4 1.4 1.4h11.2c.77 0 1.4-.63 1.4-1.4V9.4c0-.77-.63-1.4-1.4-1.4zM15 12.2c1.54 0 2.8 1.26 2.8 2.8 0 1.54-1.26 2.8-2.8 2.8-1.54 0-2.8-1.26-2.8-2.8 0-1.54 1.26-2.8 2.8-2.8zm-5.25 8.4c-.21 0-.35-.14-.35-.35V14.3h1.47c-.07.21-.07.49-.07.7 0 2.31 1.89 4.2 4.2 4.2 2.31 0 4.2-1.89 4.2-4.2 0-.21 0-.49-.07-.7h1.47v5.95c0 .21-.14.35-.35.35H9.75zm10.85-9.45c0 .21-.14.35-.35.35h-1.4c-.21 0-.35-.14-.35-.35v-1.4c0-.21.14-.35.35-.35h1.4c.21 0 .35.14.35.35v1.4z" fill="#3F729B"/></g></svg><svg width="32" height="32" viewBox="-1 -1 33 33" id="social-linkedIn" y="1090"><title>linked</title><g fill="none" fill-rule="evenodd"><circle stroke="#0077B5" stroke-width="2" cx="15" cy="15" r="15"/><g transform="translate(8 7)" fill="#0077B5"><path d="M1.842.147c-.884 0-1.62.737-1.62 1.62 0 .886.736 1.622 1.62 1.622.884 0 1.62-.737 1.62-1.622 0-.92-.7-1.62-1.62-1.62zM.442 4.642h2.8v9.026h-2.8zM10.39 4.384c-1.364 0-2.285.737-2.653 1.474H7.7V4.605H5.01v9.027h2.8v-4.42c0-1.18.222-2.323 1.695-2.323 1.437 0 1.474 1.363 1.474 2.394v4.384h2.8V8.695c0-2.432-.517-4.31-3.39-4.31z"/></g></g></svg><svg width="32" height="32" viewBox="-1 -1 33 33" id="social-pinterest" y="1122"><title>pinterest</title><g fill="none" fill-rule="evenodd"><circle stroke="#BD081C" stroke-width="2" cx="15" cy="15" r="15"/><path d="M13.933 17.92c-.405 2.066-.9 4.046-2.365 5.08-.453-3.12.664-5.465 1.182-7.954-.883-1.447.107-4.36 1.97-3.642 2.295.883-1.986 5.38.888 5.942 3 .586 4.226-5.063 2.365-6.9-2.688-2.652-7.825-.06-7.194 3.737.153.93 1.14 1.21.394 2.492-1.72-.37-2.235-1.69-2.168-3.45.106-2.88 2.66-4.896 5.222-5.175 3.24-.352 6.282 1.157 6.7 4.12.474 3.347-1.46 6.97-4.926 6.71-.94-.072-1.333-.524-2.07-.96z" fill="#BD081C"/></g></svg><svg width="32" height="32" viewBox="-1 -1 33 33" id="social-tumblr" y="1154"><title>tumblr</title><g fill="none" fill-rule="evenodd"><circle stroke="#35465C" stroke-width="2" cx="15" cy="15" r="15"/><path d="M17.898 19.035c-.212.038-2.442 1.077-2.442-1.423V13.344h2.62v-2.46H15.49V7h-2.23s0 .423-.176 1.038c-.39 1.46-1.38 2.807-2.584 3.192v2.114h1.558v4.538c0 5.613 5.91 4.075 6.442 3.422l-.602-2.27z" fill="#35465C"/></g></svg><svg width="32" height="32" viewBox="-1 -1 33 33" id="social-twitter" y="1186"><title>twitter</title><g fill="none" fill-rule="evenodd"><circle stroke="#55ACEE" stroke-width="2" cx="15" cy="15" r="15"/><path d="M22.474 11.34c-.035-.032-.07-.032-.07-.032-.418.168-.87.302-1.324.37a2.68 2.68 0 0 0 1.01-1.376c0-.034 0-.067-.034-.067-.035-.034-.07-.034-.07 0-.558.302-1.115.536-1.742.637-.558-.537-1.325-.872-2.09-.872-1.604 0-2.894 1.24-2.894 2.784 0 .2.035.368.07.536a7.768 7.768 0 0 1-5.715-2.783c0-.034-.035-.034-.07-.034-.034 0-.034 0-.07.034a2.855 2.855 0 0 0-.383 1.408c0 .872.42 1.677 1.08 2.18a2.703 2.703 0 0 1-1.01-.302h-.07c-.034 0-.034.034-.034.067v.034c0 1.24.836 2.314 2.056 2.683a4.74 4.74 0 0 1-.976 0c-.035 0-.035 0-.07.033 0 .034-.035.034 0 .067.35 1.073 1.36 1.845 2.51 1.945a5.872 5.872 0 0 1-3.346 1.04c-.21 0-.453 0-.662-.033-.035 0-.07 0-.07.032 0 .034 0 .067.035.067a8.41 8.41 0 0 0 4.39 1.24c5.088 0 8.155-3.99 8.155-7.848v-.335a6.04 6.04 0 0 0 1.394-1.408c.035-.035.035-.07 0-.07z" fill="#55ACEE"/></g></svg><svg width="32" height="32" viewBox="-1 -1 33 33" id="social-youtube" y="1218"><title>youtube</title><g fill="none" fill-rule="evenodd"><circle stroke="#CD201F" stroke-width="2" cx="15" cy="15" r="15"/><g transform="translate(9 7)" fill="#CD201F"><path d="M11.6 7.68c-.133-.644-.633-1.144-1.233-1.216-1.434-.178-2.9-.178-4.334-.178-1.433 0-2.9 0-4.333.178-.6.072-1.1.572-1.233 1.215-.2.927-.2 1.963-.2 2.927s0 2 .2 2.93c.133.642.633 1.142 1.233 1.213 1.433.18 2.9.18 4.333.18 1.434 0 2.9 0 4.334-.18.6-.07 1.1-.57 1.233-1.214.2-.93.2-1.965.2-2.93 0-.963.033-2-.2-2.927zm-8.033.713h-.834v4.75h-.766v-4.75h-.834v-.786h2.434v.786zm2.1 4.786h-.7v-.466c-.267.357-.534.5-.8.5-.234 0-.367-.107-.434-.32-.066-.108-.066-.323-.066-.608v-3.25h.7v3.322c.033.107.066.18.166.18.134 0 .3-.108.434-.358V9.035h.7v4.143zm2.666-1.25c0 .39-.033.64-.066.82-.1.32-.3.464-.567.464-.233 0-.5-.143-.733-.464v.393h-.7V7.607h.7V9.43c.233-.287.466-.466.733-.466.267 0 .467.143.567.465.033.177.066.463.066.856v1.643zm2.634-.716h-1.4v.75c0 .393.133.572.366.572.167 0 .267-.107.3-.286v-.5h.7v.607c-.033.18-.066.322-.166.464-.2.287-.467.466-.834.466a.948.948 0 0 1-.833-.43c-.133-.213-.233-.535-.233-.963V10.43c0-.43.066-.75.2-.966.2-.285.466-.428.833-.428.367 0 .633.143.833.428.134.215.2.536.2.965v.784h.034z"/><path d="M9.9 9.643c-.233 0-.367.178-.367.57v.394h.7v-.393c.034-.357-.1-.57-.333-.57zM7.3 9.643c-.1 0-.233.07-.333.178v2.537c.133.143.233.18.333.18.2 0 .3-.18.3-.573v-1.75c.033-.357-.1-.57-.3-.57zM7.7 5.893c.267 0 .533-.18.8-.5v.464h.7V1.68h-.7v3.177c-.167.25-.3.357-.433.357-.1 0-.167-.07-.167-.178V1.68h-.7v3.284c0 .286.033.5.067.607.066.216.2.323.433.323zM2.8 3.57v2.287h.767V3.57L4.5.25h-.8l-.533 2.214L2.6.25h-.833c.166.536.333 1.036.5 1.57.3.75.466 1.36.533 1.75zM5.567 5.893a.948.948 0 0 0 .833-.43c.133-.213.233-.534.233-.963V3.036c0-.43-.066-.786-.233-1a.948.948 0 0 0-.833-.43.948.948 0 0 0-.834.43c-.166.214-.233.535-.233 1V4.5c0 .43.067.786.233.964.2.286.467.43.834.43zm-.334-3c0-.393.1-.572.334-.572.233 0 .333.18.333.573v1.75c0 .393-.1.57-.333.57-.234 0-.334-.177-.334-.57v-1.75z"/></g></g></svg><svg width="32" height="32" viewBox="-1 -1 33 33" id="social-zing" y="1250"><title>zing</title><defs><path id="bwa" d="M10.592 11.25H4.676l6.512-8.936a.706.706 0 0 0 .12-.23 1.25 1.25 0 0 0 .214-.71C11.522.62 10.878 0 10.092 0H1.43C.643 0 0 .62 0 1.375 0 2.13.644 2.75 1.43 2.75H7.35L.81 11.71c-.023.045-.047.067-.07.113a1.35 1.35 0 0 0-.263.802c0 .756.644 1.375 1.43 1.375h8.66c.788 0 1.432-.62 1.432-1.375.023-.756-.62-1.375-1.408-1.375z"/></defs><g fill="none" fill-rule="evenodd"><circle stroke="#39B7E2" stroke-width="2" cx="15" cy="15" r="15"/><g transform="translate(9 8)"><mask id="bwb" fill="#fff"><use xlink:href="#bwa"/></mask><use fill="#FFF" xlink:href="#bwa"/><g transform="translate(0 -1)" mask="url(#bwb)"><path fill="#39B7E2" d="M0 0h3v24H0z"/><path fill="#7BBD73" d="M3 0h3v24H3z"/><path fill="#F79C53" d="M6 0h3v24H6z"/><path fill="#F35994" d="M9 0h3v24H9z"/></g></g></g></svg><svg width="26" height="24" viewBox="0 0 26 24" id="standard-shipping" y="1282"><title>standard shipping</title><path d="M15.314 4.046h-2.2V1.58h2.2v2.466zm5.104 17.666h5.6V0H3.414c-.202 0-.4.1-.6.294-.3.295-.3.788.1 1.086l7.502 6.516-5.3 5.33L1.314 9.87c-.3-.295-.798-.295-1.1.1-.3.293-.3.786.1 1.085l2.2 1.873v8.784H9.52l.5 1.086c0 .1.4.787 1.1 1.086.1 0 .298.1.5.1.298 0 .6-.1 1-.295l.4-.2c.2.2.398.294.6.394.1.1.298.1.6.1.298 0 .702-.1 1.1-.295l.4-.2c.2.2.4.294.6.394.1 0 .298.1.5.1.298 0 .702-.1 1.1-.295l.6-.395c.102.1.3.2.5.295.102 0 .3.1.4.1.298 0 .6-.1.9-.295.297-.2.398-.593.2-.887-.2-.295-.6-.394-.898-.2-.1.1-.202.1-.202.1-.1 0-.202-.2-.202-.294l-1.6-3.46c-.2-.295-.5-.494-.9-.295-.297.098-.5.492-.297.886l1.398 3.06-.6.293c-.202.098-.3.198-.4.098-.1 0-.202-.2-.298-.294l-1.2-2.765c-.102-.295-.5-.494-.9-.394-.3.1-.5.493-.4.887l1 2.27-.4.295c-.2.1-.398.2-.5.1-.2-.1-.297-.2-.297-.294l-.705-1.78c-.1-.293-.5-.492-.9-.392-.297.1-.5.493-.398.887l.5 1.284-.4.2c-.2.098-.298.098-.4.098-.1 0-.1-.1-.2-.1l-1.2-2.665v-.1l-2.303-5.13-1.004.986 2.1 4.638H4.116v-5.823l.6.494c.102.1.3.2.5.2.202 0 .4-.1.5-.2l6.402-6.416c.298-.294.202-.788-.1-1.086L5.413 1.874h6.1V5.82h5.3V1.874h7.602v18.652h-3.3l-2.202-4.538 1.802.493c.1 0 1 .2 1.802-.293.298-.2.798-.693.9-1.58v-.1c.1-.294-.102-.592-.3-.69l-6.3-3.36h-.1-.102l-3.6-.592-1.1 1.186 4.402.693 5.8 3.06c-.1.198-.2.393-.297.492-.2.2-.6.1-.7.1l-2.903-.788-.298-.692c-.203-.294-.602-.493-.9-.294-.3.2-.5.593-.3.888l.8 1.58 2.2 4.538.698 1.086z" fill="#9CA73B" fill-rule="evenodd"/></svg><svg width="26" height="24" viewBox="0 0 26 24" id="standard-shipping-grey" y="1306"><title>standard shipping grey</title><path d="M15.314 4.046h-2.2V1.58h2.2v2.466zm5.104 17.666h5.6V0H3.414c-.202 0-.4.1-.6.294-.3.295-.3.788.1 1.086l7.502 6.516-5.3 5.33L1.314 9.87c-.3-.295-.798-.295-1.1.1-.3.293-.3.786.1 1.085l2.2 1.873v8.784H9.52l.5 1.086c0 .1.4.787 1.1 1.086.1 0 .298.1.5.1.298 0 .6-.1 1-.295l.4-.2c.2.2.398.294.6.394.1.1.298.1.6.1.298 0 .702-.1 1.1-.295l.4-.2c.2.2.4.294.6.394.1 0 .298.1.5.1.298 0 .702-.1 1.1-.295l.6-.395c.102.1.3.2.5.295.102 0 .3.1.4.1.298 0 .6-.1.9-.295.297-.2.398-.593.2-.887-.2-.295-.6-.394-.898-.2-.1.1-.202.1-.202.1-.1 0-.202-.2-.202-.294l-1.6-3.46c-.2-.295-.5-.494-.9-.295-.297.098-.5.492-.297.886l1.398 3.06-.6.293c-.202.098-.3.198-.4.098-.1 0-.202-.2-.298-.294l-1.2-2.765c-.102-.295-.5-.494-.9-.394-.3.1-.5.493-.4.887l1 2.27-.4.295c-.2.1-.398.2-.5.1-.2-.1-.297-.2-.297-.294l-.705-1.78c-.1-.293-.5-.492-.9-.392-.297.1-.5.493-.398.887l.5 1.284-.4.2c-.2.098-.298.098-.4.098-.1 0-.1-.1-.2-.1l-1.2-2.665v-.1l-2.303-5.13-1.004.986 2.1 4.638H4.116v-5.823l.6.494c.102.1.3.2.5.2.202 0 .4-.1.5-.2l6.402-6.416c.298-.294.202-.788-.1-1.086L5.413 1.874h6.1V5.82h5.3V1.874h7.602v18.652h-3.3l-2.202-4.538 1.802.493c.1 0 1 .2 1.802-.293.298-.2.798-.693.9-1.58v-.1c.1-.294-.102-.592-.3-.69l-6.3-3.36h-.1-.102l-3.6-.592-1.1 1.186 4.402.693 5.8 3.06c-.1.198-.2.393-.297.492-.2.2-.6.1-.7.1l-2.903-.788-.298-.692c-.203-.294-.602-.493-.9-.294-.3.2-.5.593-.3.888l.8 1.58 2.2 4.538.698 1.086z" fill="#9C999D" fill-rule="evenodd"/></svg><svg width="14" height="14" viewBox="0 0 14 14" id="tooltip" y="1330"><title>i normal</title><g fill="#486168" fill-rule="evenodd"><path d="M7 14c-3.9 0-7-3.1-7-7s3.1-7 7-7 7 3.1 7 7-3.1 7-7 7zM7 .9C3.6.9.9 3.6.9 7c0 3.4 2.8 6.1 6.1 6.1 3.4 0 6.1-2.8 6.1-6.1C13.1 3.6 10.4.9 7 .9z"/><path d="M7.7 9.9V5.6c-.4.1-.8.2-1.4.2h-.6V6c.2 0 .4.1.5.2.1.1.1.4.1.7V10c0 .2 0 .3-.1.4 0 .1-.1.2-.2.2s-.2.1-.4.1v.2h2.7v-.2c-.2 0-.3 0-.4-.1-.1 0-.2-.1-.2-.2v-.5m-.8-6.7c-.3 0-.5.1-.7.2-.1.1-.2.3-.2.5s.1.4.2.6c.2.1.4.2.7.2.3 0 .5-.1.7-.2.2-.1.2-.3.2-.6 0-.2-.1-.4-.2-.6-.2-.1-.4-.1-.7-.1"/></g></svg><svg width="14" height="14" viewBox="0 0 14 14" id="tooltip-blue" y="1344"><title>i select</title><g fill="none" fill-rule="evenodd"><path d="M6.703 13.66a6.667 6.667 0 1 0 0-13.334 6.667 6.667 0 0 0 0 13.334" fill="#45595C"/><path d="M7.423 9.94V5.59c-.384.092-.87.137-1.46.137-.202 0-.408-.01-.62-.03v.21c.238 0 .404.07.498.208.095.14.143.363.143.672V9.94c0 .187-.02.332-.06.436a.38.38 0 0 1-.202.22.92.92 0 0 1-.377.063v.21c.716-.027 1.18-.04 1.392-.04.22 0 .664.013 1.328.04v-.21a.905.905 0 0 1-.376-.065.392.392 0 0 1-.2-.22 1.198 1.198 0 0 1-.064-.434m-.78-6.82c-.284 0-.507.07-.67.205a.693.693 0 0 0-.244.562c0 .24.08.43.243.566.163.137.386.205.67.205.276 0 .496-.068.66-.205.165-.137.247-.326.247-.566a.69.69 0 0 0-.247-.562c-.164-.136-.384-.205-.66-.205" fill="#FFF"/></g></svg><svg width="14" height="14" viewBox="0 0 14 14" id="tooltip-gray" y="1358"><title>i grey</title><g fill="#AAA" fill-rule="evenodd"><path d="M6.915 14a6.916 6.916 0 0 1 0-13.83 6.916 6.916 0 0 1 6.915 6.915C13.873 10.86 10.733 14 6.915 14zm0-13.024A6.065 6.065 0 0 0 .848 7.042a6.065 6.065 0 0 0 6.067 6.067 6.065 6.065 0 0 0 6.067-6.068c.042-3.35-2.715-6.066-6.067-6.066z"/><path d="M7.636 9.927V5.685c-.38.085-.848.127-1.442.127-.212 0-.382 0-.594-.042v.212c.212 0 .382.085.467.212.085.127.127.34.127.636v3.097c0 .17 0 .34-.042.425-.043.084-.085.17-.213.212-.085.042-.213.042-.382.042v.212c.678-.042 1.145-.042 1.357-.042.212 0 .637 0 1.315.042v-.212c-.17 0-.297 0-.382-.042a.51.51 0 0 1-.212-.212v-.425m-.763-6.66c-.297 0-.51.085-.637.212-.17.126-.254.296-.254.55 0 .255.085.425.254.552.17.127.382.212.637.212.254 0 .466-.085.636-.212.17-.127.254-.297.254-.552a.684.684 0 0 0-.255-.55 1.042 1.042 0 0 0-.637-.213"/></g></svg><svg width="14" height="14" viewBox="0 0 14 14" id="tooltip-orange" y="1372"><title>i orange</title><g fill="#F27123" fill-rule="evenodd"><path d="M7 14.127c-3.86 0-7-3.14-7-7s3.14-7 7-7 7 3.14 7 7-3.14 7-7 7zM7 .977a6.156 6.156 0 0 0-6.152 6.15A6.156 6.156 0 0 0 7 13.28a6.156 6.156 0 0 0 6.152-6.153A6.156 6.156 0 0 0 7 .977z"/><path d="M7.72 10.012V5.727c-.38.085-.847.128-1.44.128-.213 0-.383 0-.595-.043v.212c.254 0 .382.085.51.212.084.128.126.34.126.68v3.096c0 .17 0 .34-.04.424-.044.085-.086.17-.213.212-.085.043-.212.043-.382.043v.213c.72-.042 1.145-.042 1.357-.042.213 0 .637 0 1.316.043v-.212c-.17 0-.297 0-.382-.042a.51.51 0 0 1-.212-.212c-.043-.084-.043-.212-.043-.424M6.96 3.31c-.297 0-.51.084-.68.21a.684.684 0 0 0-.254.553c0 .254.085.424.255.55.168.13.38.213.678.213.254 0 .51-.084.636-.212a.684.684 0 0 0 .254-.55c0-.256-.084-.426-.254-.553-.17-.168-.382-.21-.636-.21"/></g></svg><svg version="1" width="32" height="32" viewBox="-288.9 381.1 32 32" id="top-rated-seller" y="1386"><path fill="#598a96" d="M-288.6 391.7l7.7 8-7 12.6 21.5-20.6z"/><path fill="#c6b985" d="M-287.9 412.7l11.6-7.9 7.7 7.9-.2-13 11.6-8h-5.8zM-272.9 381.6c-2.2 0-3.9 1.9-3.9 4.3s1.7 4.3 3.9 4.3 3.9-1.9 3.9-4.3-1.7-4.3-3.9-4.3"/></svg><svg version="1" width="14" height="14" viewBox="-289 381 14 14" id="top-rated-seller_sm" y="1418"><path fill="#598a96" d="M-288.4 385.7l3.2 3.4-2.9 5.2 8.9-8.6z"/><path fill="#c6b985" d="M-288.1 394.4l4.8-3.2 3.2 3.2-.1-5.3 4.8-3.4h-2.4zM-281.9 381.6c-.9 0-1.6.8-1.6 1.8s.7 1.8 1.6 1.8 1.6-.8 1.6-1.8-.7-1.8-1.6-1.8"/></svg><svg width="24" height="21" viewBox="0 0 24 21" id="ups-block-cod" y="1432"><title>COD_24_white</title><path d="M9.455 6.385c-.91.197-1.488.597-1.573.874l-.008.028.007.03c.05.19.486.445 1.198.542l.09.013.467-1.527-.18.04zm.037 4.325l.172-.028c.992-.166 1.708-.604 1.804-.915l.008-.03-.007-.03c-.058-.22-.613-.497-1.41-.564l-.088-.007-.48 1.574zM22.04.22H2.208c-1.048 0-1.9.852-1.9 1.9v2.907c0 1.047.852 1.9 1.9 1.9h.296l.423-1.4h-.72a.5.5 0 0 1-.5-.5V2.12a.5.5 0 0 1 .5-.5H5.36L.316 18.257h2.5l-.71 2.344H15.08L20.82 1.62h1.22a.5.5 0 0 1 .5.5v2.907a.5.5 0 0 1-.5.5h-1.132l-.423 1.4h1.555c1.048 0 1.9-.853 1.9-1.9V2.12c0-1.048-.852-1.9-1.9-1.9zM6.824 1.62H16.87l-4.62 15.238H2.205l4.62-15.24zM14.04 19.2H3.994l.285-.944h9.012l5.044-16.64h1.024L14.04 19.203zm-6.332-6.54l.24-.787-.118-.022c-.798-.146-1.415-.467-1.74-.905a1.294 1.294 0 0 1-.172-.327l1.196-.302c.168.153.55.324 1.094.398l.09.012.566-1.855-.116-.024c-.727-.15-1.272-.34-1.578-.556a1.2 1.2 0 0 1-.1-.078l-.023-.024c-.03-.032-.06-.064-.086-.098a1.304 1.304 0 0 1-.21-1.18c.347-1.138 1.935-1.68 3.19-1.8l.072-.006.245-.803 1.183.018-.244.8.125.02c.896.124 1.585.457 1.94.935.07.096.127.204.173.33l-1.19.31c-.184-.18-.644-.376-1.313-.432l-.086-.007-.568 1.86.122.02c1.057.168 1.567.432 1.777.575.052.036.093.068.124.095l.028.032a.767.767 0 0 1 .06.07c.262.352.337.77.212 1.18-.345 1.13-1.96 1.726-3.406 1.815l-.074.005-.228.748-1.184-.018z" fill="#7b8c94" fill-rule="evenodd"/></svg><svg width="24" height="21" viewBox="0 0 24 21" id="ups-block-cod-orange" y="1453"><title>COD_24_orange</title><path d="M9.455 6.385c-.91.197-1.488.597-1.573.874l-.008.028.007.03c.05.19.486.445 1.198.542l.09.013.467-1.527-.18.04zm.037 4.325l.172-.028c.992-.166 1.708-.604 1.804-.915l.008-.03-.007-.03c-.058-.22-.613-.497-1.41-.564l-.088-.007-.48 1.574zM22.04.22H2.208c-1.048 0-1.9.852-1.9 1.9v2.907c0 1.047.852 1.9 1.9 1.9h.296l.423-1.4h-.72a.5.5 0 0 1-.5-.5V2.12a.5.5 0 0 1 .5-.5H5.36L.316 18.257h2.5l-.71 2.344H15.08L20.82 1.62h1.22a.5.5 0 0 1 .5.5v2.907a.5.5 0 0 1-.5.5h-1.132l-.423 1.4h1.555c1.048 0 1.9-.853 1.9-1.9V2.12c0-1.048-.852-1.9-1.9-1.9zM6.824 1.62H16.87l-4.62 15.238H2.205l4.62-15.24zM14.04 19.2H3.994l.285-.944h9.012l5.044-16.64h1.024L14.04 19.203zm-6.332-6.54l.24-.787-.118-.022c-.798-.146-1.415-.467-1.74-.905a1.294 1.294 0 0 1-.172-.327l1.196-.302c.168.153.55.324 1.094.398l.09.012.566-1.855-.116-.024c-.727-.15-1.272-.34-1.578-.556a1.2 1.2 0 0 1-.1-.078l-.023-.024c-.03-.032-.06-.064-.086-.098a1.304 1.304 0 0 1-.21-1.18c.347-1.138 1.935-1.68 3.19-1.8l.072-.006.245-.803 1.183.018-.244.8.125.02c.896.124 1.585.457 1.94.935.07.096.127.204.173.33l-1.19.31c-.184-.18-.644-.376-1.313-.432l-.086-.007-.568 1.86.122.02c1.057.168 1.567.432 1.777.575.052.036.093.068.124.095l.028.032a.767.767 0 0 1 .06.07c.262.352.337.77.212 1.18-.345 1.13-1.96 1.726-3.406 1.815l-.074.005-.228.748-1.184-.018z" fill="#F57224" fill-rule="evenodd"/></svg><svg width="23" height="26" viewBox="0 0 23 26" id="ups-block-shield" y="1474"><title>ups-block-shield</title><path d="M21.802 4.682a.7.7 0 0 0-.257-.486.71.71 0 0 0-.53-.154c-6.668.783-8.856-2.558-8.952-2.71a.705.705 0 0 0-.65-.33.706.706 0 0 0-.645.334c-.02.035-2.21 3.497-8.948 2.706a.71.71 0 0 0-.532.154.7.7 0 0 0-.256.486c-.012.15-1.07 15.06 10.065 19.74.09.04.184.057.276.057.015 0 .03-.007.044-.008.014 0 .03.007.043.007a.708.708 0 0 0 .276-.057c11.135-4.68 10.078-19.59 10.066-19.74zM11.417 23.028C2.793 19.21 2.367 8.395 2.415 5.508c5.258.408 7.938-1.62 9-2.746 1.063 1.124 3.74 3.153 9.005 2.745.05 2.886-.365 13.698-9.003 17.52z" fill="#7B8C94" fill-rule="evenodd"/></svg><svg width="23" height="26" viewBox="0 0 23 26" id="ups-block-shield-orange" y="1500"><title>UPS_shield_orange_24</title><path d="M21.802 4.682a.7.7 0 0 0-.257-.486.71.71 0 0 0-.53-.154c-6.668.783-8.856-2.558-8.952-2.71a.705.705 0 0 0-.65-.33.706.706 0 0 0-.645.334c-.02.035-2.21 3.497-8.948 2.706a.71.71 0 0 0-.532.154.7.7 0 0 0-.256.486c-.012.15-1.07 15.06 10.065 19.74.09.04.184.057.276.057.015 0 .03-.007.044-.008.014 0 .03.007.043.007a.708.708 0 0 0 .276-.057c11.135-4.68 10.078-19.59 10.066-19.74zM11.417 23.028C2.793 19.21 2.367 8.395 2.415 5.508c5.258.408 7.938-1.62 9-2.746 1.063 1.124 3.74 3.153 9.005 2.745.05 2.886-.365 13.698-9.003 17.52z" fill="#F57224" fill-rule="evenodd"/></svg><svg version="1" viewBox="-295 387 20 20" width="20" height="20" id="view-grid" y="1526"><g fill="#989898"><path d="M-286.9 396h-6.1c-.6 0-1-.4-1-1v-6c0-.6.4-1 1-1h6.1c.6 0 1 .4 1 1v6c0 .6-.5 1-1 1zM-277 396h-6.1c-.6 0-1-.4-1-1v-6c0-.6.4-1 1-1h6.1c.6 0 1 .4 1 1v6c0 .6-.4 1-1 1zM-277 406h-6.1c-.6 0-1-.4-1-1v-6c0-.6.4-1 1-1h6.1c.6 0 1 .4 1 1v6c0 .5-.4 1-1 1zM-286.9 406h-6.1c-.6 0-1-.4-1-1v-6c0-.6.4-1 1-1h6.1c.6 0 1 .4 1 1v6c0 .6-.5 1-1 1z"/></g></svg><svg version="1" viewBox="-295 387 20 20" width="20" height="20" id="view-grid-selected" y="1546"><g fill="#274b5f"><path d="M-286.9 396h-6.1c-.6 0-1-.4-1-1v-6c0-.6.4-1 1-1h6.1c.6 0 1 .4 1 1v6c0 .6-.5 1-1 1zM-277 396h-6.1c-.6 0-1-.4-1-1v-6c0-.6.4-1 1-1h6.1c.6 0 1 .4 1 1v6c0 .6-.4 1-1 1zM-277 406h-6.1c-.6 0-1-.4-1-1v-6c0-.6.4-1 1-1h6.1c.6 0 1 .4 1 1v6c0 .5-.4 1-1 1zM-286.9 406h-6.1c-.6 0-1-.4-1-1v-6c0-.6.4-1 1-1h6.1c.6 0 1 .4 1 1v6c0 .6-.5 1-1 1z"/></g></svg><svg version="1" viewBox="-305.1 397 26.3 20" width="26.3" height="20" id="view-list" y="1566"><path d="M-299.9 403h-3.1c-.6 0-1-.4-1-1v-3.1c0-.6.4-1 1-1h3.1c.6 0 1 .4 1 1v3.1c0 .6-.5 1-1 1zM-299.9 409.5h-3.1c-.6 0-1-.4-1-1v-3.1c0-.6.4-1 1-1h3.1c.6 0 1 .4 1 1v3.1c0 .6-.5 1-1 1zM-299.9 416h-3.1c-.6 0-1-.4-1-1v-3.1c0-.6.4-1 1-1h3.1c.6 0 1 .4 1 1v3.1c0 .6-.5 1-1 1zM-281 403h-15.1c-.6 0-1-.4-1-1v-3.1c0-.6.4-1 1-1h15.1c.6 0 1 .4 1 1v3.1c0 .6-.5 1-1 1zM-281 409.5h-15.1c-.6 0-1-.4-1-1v-3.1c0-.6.4-1 1-1h15.1c.6 0 1 .4 1 1v3.1c0 .6-.5 1-1 1zM-281 416h-15.1c-.6 0-1-.4-1-1v-3.1c0-.6.4-1 1-1h15.1c.6 0 1 .4 1 1v3.1c0 .6-.5 1-1 1z" fill="#989898"/></svg><svg version="1" viewBox="-305.1 397 26.3 20" width="26.3" height="20" id="view-list-selected" y="1586"><path d="M-299.9 403h-3.1c-.6 0-1-.4-1-1v-3.1c0-.6.4-1 1-1h3.1c.6 0 1 .4 1 1v3.1c0 .6-.5 1-1 1zM-299.9 409.5h-3.1c-.6 0-1-.4-1-1v-3.1c0-.6.4-1 1-1h3.1c.6 0 1 .4 1 1v3.1c0 .6-.5 1-1 1zM-299.9 416h-3.1c-.6 0-1-.4-1-1v-3.1c0-.6.4-1 1-1h3.1c.6 0 1 .4 1 1v3.1c0 .6-.5 1-1 1zM-281 403h-15.1c-.6 0-1-.4-1-1v-3.1c0-.6.4-1 1-1h15.1c.6 0 1 .4 1 1v3.1c0 .6-.5 1-1 1zM-281 409.5h-15.1c-.6 0-1-.4-1-1v-3.1c0-.6.4-1 1-1h15.1c.6 0 1 .4 1 1v3.1c0 .6-.5 1-1 1zM-281 416h-15.1c-.6 0-1-.4-1-1v-3.1c0-.6.4-1 1-1h15.1c.6 0 1 .4 1 1v3.1c0 .6-.5 1-1 1z" fill="#274b5f"/></svg><svg width="15" height="25" viewBox="0 0 15 25" id="view-on-mobile" y="1606"><title>ic_mobile_25px</title><g transform="translate(-5)" fill="none" fill-rule="evenodd"><path d="M0 0h25v25H0z"/><path d="M12.198 20.778a.893.893 0 1 0 0 1.786.893.893 0 0 0 0-1.786m5.214 2.833H6.984a.603.603 0 0 1-.595-.594V19.9h11.617v3.116a.603.603 0 0 1-.595.595zM6.984 1.413h10.428c.323 0 .595.273.595.595v1.47H6.39v-1.47c0-.322.272-.595.594-.595zM18.007 18.51H6.39V4.865h11.617V18.51zM17.412.023H6.984A1.99 1.99 0 0 0 5 2.007v21.01A1.99 1.99 0 0 0 6.984 25h10.428a1.99 1.99 0 0 0 1.984-1.984V2.006A1.99 1.99 0 0 0 17.412.024z" fill="#39434E"/></g></svg></svg>