<svg xmlns="http://www.w3.org/2000/svg" xmlns:xlink="http://www.w3.org/1999/xlink" xmlns:sketch="http://www.bohemiancoding.com/sketch/ns" width="17px" height="20px" viewBox="0 0 17 20" version="1.1"><title>lock</title><desc>Created with Sketch.</desc><defs/><g id="Page-1" stroke="none" stroke-width="1" fill="none" fill-rule="evenodd" sketch:type="MSPage"><g id="Login---Text-entered" sketch:type="MSArtboardGroup" transform="translate(-467.000000, -316.000000)" fill="#95A7B7"><g id="Fields" sketch:type="MSLayerGroup" transform="translate(437.000000, 220.000000)"><g id="Password" transform="translate(0.000000, 71.000000)" sketch:type="MSShapeGroup"><path d="M45.725,33.3333333 L45.3,33.3333333 L45.3,31.875 C45.3,28.02 42.3131,25 38.5,25 C34.6869,25 31.7,28.02 31.7,31.875 L31.7,33.3333333 L31.275,33.3333333 C30.5712,33.3333333 30,33.8933333 30,34.5833333 L30,43.75 C30,44.44 30.5712,45 31.275,45 L45.725,45 C46.4288,45 47,44.44 47,43.75 L47,34.5833333 C47,33.8933333 46.4288,33.3333333 45.725,33.3333333 L45.725,33.3333333 Z M34.25,31.875 C34.25,29.3808333 36.07665,27.5 38.5,27.5 C40.92335,27.5 42.75,29.3808333 42.75,31.875 L42.75,33.3333333 L34.25,33.3333333 L34.25,31.875 L34.25,31.875 Z M40.2,40.0166667 C40.2,40.9275 39.44605,41.6666667 38.517,41.6666667 L38.483,41.6666667 C37.55395,41.6666667 36.8,40.9275 36.8,40.0166667 L36.8,38.3166667 C36.8,37.4058333 37.55395,36.6666667 38.483,36.6666667 L38.517,36.6666667 C39.44605,36.6666667 40.2,37.4058333 40.2,38.3166667 L40.2,40.0166667 L40.2,40.0166667 Z" id="lock"/></g></g></g></g></svg>